<svg width="54" height="53" viewBox="0 0 54 53" fill="none" xmlns="http://www.w3.org/2000/svg">
<path d="M20.2154 48.527C20.9035 49.8464 21.9401 50.952 23.2126 51.7235C24.485 52.495 25.9446 52.9029 27.4327 52.9029C28.9208 52.9029 30.3803 52.495 31.6528 51.7235C32.9253 50.952 33.9619 49.8464 34.65 48.527C29.8384 48.7124 25.0269 48.7124 20.2154 48.527ZM42.8305 26.5699L40.6598 8.14011C38.2052 6.42712 35.4405 5.20835 32.5201 4.55182V2.07597C31.161 0.745253 29.3347 0 27.4327 0C25.5307 0 23.7043 0.745253 22.3453 2.07597V4.55182C19.4249 5.20835 16.6602 6.42712 14.2055 8.14011L12.0349 26.5699C11.7073 29.358 10.4289 31.9481 8.41503 33.9039C6.40117 35.8597 3.77486 37.0617 0.978378 37.3077V42.7342C18.5272 45.2169 36.3382 45.2169 53.887 42.7342V37.3077C51.0905 37.0617 48.4642 35.8597 46.4504 33.9039C44.4365 31.9481 43.1581 29.358 42.8305 26.5699Z" fill="#71716F"/>
</svg>
