<svg width="54" height="54" viewBox="0 0 54 54" fill="none" xmlns="http://www.w3.org/2000/svg">
<path d="M50.2691 13.9083C48.0247 11.5975 44.9579 10.2674 41.7371 10.2077C38.5163 10.148 35.4024 11.3635 33.0738 13.5895L29.3431 17.1846C29.2727 16.6061 29.2365 16.024 29.2345 15.4413C29.2417 12.498 30.1578 9.62885 31.8577 7.22604C33.5575 4.82323 35.958 3.00412 38.7309 2.01745C38.7716 2.01745 38.7852 2.01743 38.792 1.97673C39.0239 1.86653 39.2056 1.6727 39.3006 1.43413C39.3956 1.19556 39.3969 0.929893 39.3042 0.69042C39.2115 0.450947 39.0317 0.255382 38.8008 0.142953C38.5699 0.0305239 38.3051 0.00956185 38.0594 0.084246C31.0361 2.56156 23.3766 2.56156 16.3533 0.084246C16.1091 0.00530796 15.844 0.0216135 15.6112 0.129891C15.3785 0.238168 15.1953 0.430404 15.0983 0.668084C15.0014 0.905765 14.9978 1.17132 15.0884 1.4115C15.179 1.65168 15.357 1.84873 15.5868 1.96317C15.6131 1.98932 15.6459 2.00805 15.6818 2.01745C18.4548 3.00412 20.8553 4.82323 22.5551 7.22604C24.2549 9.62885 25.171 12.498 25.1782 15.4413C25.1797 16.0219 25.1434 16.6019 25.0697 17.1778L21.3457 13.5895C20.2091 12.4219 18.8494 11.4945 17.3474 10.8625C15.8454 10.2306 14.2318 9.9069 12.6022 9.91072C10.9727 9.91453 9.36058 10.2458 7.86156 10.8848C6.36254 11.5237 5.00721 12.4574 3.87606 13.6304C2.74492 14.8034 1.86102 16.1917 1.27686 17.7129C0.6927 19.2341 0.42019 20.8573 0.475519 22.4858C0.530849 24.1144 0.912883 25.7153 1.59894 27.1934C2.28499 28.6714 3.26109 29.9966 4.46924 31.0901L27.2064 53.02L49.9639 31.0901C52.2687 28.8443 53.5938 25.7795 53.6509 22.562C53.7081 19.3445 52.4927 16.2345 50.2691 13.9083Z" fill="#71716F"/>
</svg>
