<svg width="46" height="45" viewBox="0 0 46 45" fill="none" xmlns="http://www.w3.org/2000/svg">
<path d="M35.164 1.73596C33.5976 4.96859 24.3088 7.26335 26.5936 14.417C27.9405 18.6574 33.7871 18.7571 35.164 15.6542C36.5409 18.7571 42.3875 18.6474 43.7344 14.417C46.0192 7.26335 36.7304 4.96859 35.164 1.73596Z" stroke="#505050" stroke-width="2" stroke-linecap="round" stroke-linejoin="round"/>
<path d="M11.2187 5.78672C10.3307 1.53641 3.23686 1.51646 1.6405 6.58491C-0.903694 14.5667 9.47265 17.1508 11.2187 20.7526C12.9647 17.1508 23.341 14.5867 20.7968 6.58491C19.2005 1.51646 12.1066 1.53641 11.2187 5.78672Z" stroke="#505050" stroke-width="2" stroke-linecap="round" stroke-linejoin="round"/>
<path d="M11.2186 25.7412C9.87168 28.9439 4.78329 33.5135 1.24136 34.7208C4.79326 35.928 9.87168 40.5076 11.2186 43.7003C12.5655 40.5076 17.644 35.928 21.1959 34.7208C17.644 33.5035 12.5655 28.9339 11.2186 25.7412Z" stroke="#505050" stroke-width="2" stroke-linecap="round" stroke-linejoin="round"/>
<path d="M32.1708 43.7003H38.1572" stroke="#505050" stroke-width="2" stroke-linecap="round" stroke-linejoin="round"/>
<path d="M32.1708 20.7526H38.1572" stroke="#505050" stroke-width="2" stroke-linecap="round" stroke-linejoin="round"/>
<path d="M39.5739 31.967C39.0965 31.9671 38.6219 32.0411 38.1671 32.1865C38.8125 31.489 39.1691 30.5726 39.1649 29.6224C39.1132 28.5815 38.6634 27.6004 37.9084 26.8819C37.1535 26.1635 36.1513 25.7629 35.1091 25.7629C34.067 25.7629 33.0647 26.1635 32.3098 26.8819C31.5548 27.6004 31.105 28.5815 31.0534 29.6224C31.0531 30.5719 31.4092 31.4869 32.0511 32.1865C31.5996 32.0418 31.1284 31.9678 30.6543 31.967C29.4953 31.967 28.3837 32.4274 27.5642 33.247C26.7446 34.0665 26.2842 35.1781 26.2842 36.3371C26.2842 37.4961 26.7446 38.6076 27.5642 39.4272C28.3837 40.2467 29.4953 40.7071 30.6543 40.7071C31.5537 40.7179 32.4394 40.4853 33.2175 40.0339C33.9955 39.5825 34.6371 38.9291 35.0742 38.1429C35.5121 38.9306 36.1552 39.585 36.9352 40.0365C37.7152 40.488 38.6029 40.7197 39.5041 40.7071C40.6631 40.7071 41.7746 40.2467 42.5942 39.4272C43.4137 38.6076 43.8741 37.4961 43.8741 36.3371C43.8741 35.1781 43.4137 34.0665 42.5942 33.247C41.7746 32.4274 40.6631 31.967 39.5041 31.967H39.5739Z" stroke="#505050" stroke-width="2" stroke-linecap="round" stroke-linejoin="round"/>
</svg>
