<svg width="54" height="48" viewBox="0 0 54 48" fill="none" xmlns="http://www.w3.org/2000/svg">
<path d="M43.0617 19.9347C40.8213 18.9771 38.3727 18.6103 35.95 18.8692C33.5273 19.1281 31.2115 20.0041 29.224 21.4134C31.9125 24.6889 33.382 28.7954 33.382 33.0329C33.382 37.2705 31.9125 41.377 29.224 44.6525C30.0451 45.228 30.9224 45.7188 31.8423 46.1176C33.5647 46.8742 35.4199 47.2821 37.3008 47.3178C39.1816 47.3535 41.051 47.0162 42.8008 46.3256C44.5506 45.6349 46.1463 44.6045 47.4958 43.2937C48.8452 41.983 49.9217 40.418 50.663 38.689C51.4043 36.96 51.7958 35.1013 51.8149 33.2202C51.8339 31.3391 51.4802 29.4728 50.7741 27.7291C50.0681 25.9855 49.0236 24.3989 47.701 23.0611C46.3784 21.7233 44.8039 20.6607 43.0684 19.9347H43.0617ZM44.5811 34.5592H44.5404C44.0065 34.5592 43.494 34.3495 43.1133 33.9752C42.7327 33.6008 42.5144 33.0919 42.5055 32.5581C42.4944 31.5665 42.1627 30.6052 41.5599 29.8178C40.9572 29.0304 40.1157 28.4592 39.1614 28.1898C38.8991 28.1214 38.6531 28.0014 38.4379 27.8367C38.2227 27.6721 38.0425 27.466 37.9079 27.2308C37.7734 26.9955 37.6872 26.7358 37.6544 26.4668C37.6216 26.1977 37.6429 25.9249 37.717 25.6642C37.7911 25.4035 37.9165 25.1603 38.0859 24.9487C38.2553 24.7372 38.4652 24.5616 38.7034 24.4322C38.9415 24.3029 39.2031 24.2225 39.4728 24.1956C39.7425 24.1688 40.0148 24.1961 40.2738 24.2759C42.0703 24.7811 43.655 25.8543 44.7908 27.335C45.9267 28.8157 46.5528 30.6242 46.5754 32.4903C46.5844 33.0289 46.3796 33.5491 46.0058 33.9369C45.632 34.3247 45.1196 34.5485 44.5811 34.5592ZM20.684 19.9347C18.0955 18.821 15.2348 18.5002 12.4638 19.0127C9.69291 19.5253 7.13625 20.8481 5.1173 22.814C3.09835 24.7799 1.70783 27.3004 1.12166 30.0567C0.535484 32.813 0.779991 35.6812 1.82425 38.2985C2.86852 40.9158 4.66562 43.1646 6.98819 44.7603C9.31077 46.3561 12.0545 47.2271 14.8722 47.2632C17.6899 47.2993 20.455 46.4989 22.8177 44.9632C25.1804 43.4275 27.0345 41.2255 28.1455 38.6358C29.634 35.1662 29.6842 31.2476 28.2851 27.741C26.886 24.2344 24.1521 21.4267 20.684 19.9347ZM22.2035 34.5592H22.1628C21.6289 34.5592 21.1164 34.3495 20.7357 33.9752C20.355 33.6008 20.1367 33.0919 20.1278 32.5581C20.1046 31.5688 19.7675 30.6124 19.1652 29.8272C18.5628 29.042 17.7265 28.4685 16.7769 28.1898C16.2686 28.0331 15.8418 27.6836 15.588 27.2161C15.3342 26.7487 15.2735 26.2004 15.4189 25.6887C15.5643 25.1771 15.9043 24.7427 16.3661 24.4786C16.8278 24.2145 17.3746 24.1418 17.8894 24.2759C19.686 24.7818 21.271 25.855 22.4078 27.3354C23.5447 28.8157 24.1725 30.6239 24.1977 32.4903C24.2068 33.0289 24.002 33.5491 23.6281 33.9369C23.2543 34.3247 22.742 34.5485 22.2035 34.5592ZM20.1007 13.1176L25.9206 6.84996L31.7406 13.1176C32.1094 13.5115 32.6196 13.7429 33.1589 13.7607C33.6983 13.7785 34.2226 13.5813 34.6166 13.2126C34.8126 13.0309 34.9709 12.8123 35.0824 12.5694C35.194 12.3266 35.2566 12.0641 35.2666 11.797C35.2767 11.5299 35.2341 11.2635 35.1412 11.0129C35.0483 10.7623 34.9069 10.5325 34.7252 10.3365L27.4129 2.47482C27.2184 2.27628 26.9862 2.11856 26.73 2.01089C26.4737 1.90321 26.1986 1.84775 25.9206 1.84775C25.6427 1.84775 25.3675 1.90321 25.1113 2.01089C24.855 2.11856 24.6229 2.27628 24.4283 2.47482L17.1229 10.3501C16.926 10.5426 16.7703 10.7732 16.6651 11.0277C16.56 11.2822 16.5076 11.5554 16.5111 11.8308C16.5146 12.1061 16.574 12.3779 16.6856 12.6297C16.7972 12.8814 16.9588 13.1079 17.1605 13.2953C17.3622 13.4828 17.5999 13.6274 17.8592 13.7203C18.1184 13.8133 18.3938 13.8526 18.6687 13.836C18.9436 13.8194 19.2122 13.7471 19.4584 13.6236C19.7045 13.5002 19.923 13.328 20.1007 13.1176ZM47.9116 6.09024C45.6798 3.85669 42.9656 2.16456 39.9777 1.14388C36.9897 0.123194 33.8075 -0.19886 30.6756 0.202461L53.7994 23.3262C54.1973 20.1923 53.8709 17.0088 52.8455 14.0207C51.8201 11.0326 50.1229 8.31954 47.8845 6.09024H47.9116Z" fill="#71716F"/>
</svg>
