<svg width="53" height="43" viewBox="0 0 53 43" fill="none" xmlns="http://www.w3.org/2000/svg">
<path d="M41.4354 0.925018H12.5459L0.68219 15.848L26.8313 42.8788L52.9532 15.909L41.4354 0.925018ZM35.005 16.7501L26.8313 34.7391L18.6915 16.7433L35.005 16.7501ZM19.7564 14.7152L27.0687 5.30694L34.2317 14.7152H19.7564ZM29.4089 4.99491H38.227L36.036 13.7113L29.4089 4.99491ZM24.7556 4.99491L17.7893 13.9555L15.7544 4.99491H24.7556ZM16.5209 16.7501L24.5928 34.6712L7.22793 16.7501H16.5209ZM37.2638 16.7501H46.4685L29.1375 34.6441L37.2638 16.7501ZM46.9365 14.7152H37.8743L40.0855 5.84281L46.9365 14.7152ZM13.8076 5.85638L15.8426 14.7152H6.79382L13.8076 5.85638Z" fill="#71716F"/>
</svg>
