<svg width="35" height="35" viewBox="0 0 35 35" fill="none" xmlns="http://www.w3.org/2000/svg">
<path d="M28.8616 28.645V22.916L26.7132 20.7676V1.43231H3.79724V20.7676L1.64886 22.916V28.645H28.8616Z" stroke="#D5AD61" stroke-width="1.43225" stroke-miterlimit="10"/>
<path d="M12.3907 11.458H6.66173V20.0515H12.3907V11.458Z" stroke="#D5AD61" stroke-width="1.43225" stroke-miterlimit="10"/>
<path d="M18.1197 11.458H12.3907V20.0515H18.1197V11.458Z" stroke="#D5AD61" stroke-width="1.43225" stroke-miterlimit="10"/>
<path d="M23.8487 11.458H18.1197V20.0515H23.8487V11.458Z" stroke="#D5AD61" stroke-width="1.43225" stroke-miterlimit="10"/>
<path d="M23.8487 4.29675H6.66173V8.59349H23.8487V4.29675Z" stroke="#D5AD61" stroke-width="1.43225" stroke-miterlimit="10"/>
<path d="M25.9971 30.0773V33.6579H3.79723V30.0773" stroke="#D5AD61" stroke-width="1.43225" stroke-miterlimit="10"/>
<path d="M26.7132 13.6064H32.4422C32.822 13.6064 33.1863 13.7573 33.4549 14.0259C33.7235 14.2945 33.8744 14.6588 33.8744 15.0386V16.4709C33.8744 16.8507 33.7235 17.215 33.4549 17.4836C33.1863 17.7522 32.822 17.9031 32.4422 17.9031H26.7132V13.6064Z" stroke="#D5AD61" stroke-width="1.43225" stroke-miterlimit="10"/>
<path d="M31.726 7.1613C32.9126 7.1613 33.8744 6.19945 33.8744 5.01293C33.8744 3.82642 32.9126 2.86456 31.726 2.86456C30.5395 2.86456 29.5777 3.82642 29.5777 5.01293C29.5777 6.19945 30.5395 7.1613 31.726 7.1613Z" stroke="#D5AD61" stroke-width="1.43225" stroke-miterlimit="10"/>
<path d="M31.726 7.16132V13.6064" stroke="#D5AD61" stroke-width="1.43225" stroke-miterlimit="10"/>
</svg>
