<svg width="54" height="44" viewBox="0 0 54 44" fill="none" xmlns="http://www.w3.org/2000/svg">
<path d="M50.4859 4.16384C48.2389 1.83251 45.1578 0.489208 41.9204 0.429421C38.683 0.369634 35.5544 1.59825 33.2228 3.84503L27.3282 9.52932L21.4337 3.84503C19.1022 1.59628 15.9728 0.365812 12.7341 0.424328C9.49535 0.482844 6.41252 1.82554 4.16376 4.15705C1.915 6.48856 0.684538 9.61791 0.743054 12.8566C0.80157 16.0954 2.14427 19.1782 4.47578 21.427L27.3147 43.4383L50.1536 21.427C52.4867 19.1818 53.8325 16.1017 53.8948 12.8642C53.9572 9.62682 52.731 6.49722 50.4859 4.16384Z" fill="#71716F"/>
</svg>
