<svg width="32" height="31" viewBox="0 0 32 31" fill="none" xmlns="http://www.w3.org/2000/svg">
<path d="M26.5104 1.58069H5.74283C3.36981 1.58069 1.44609 3.5044 1.44609 5.87743V25.2128C1.44609 27.5858 3.36981 29.5095 5.74283 29.5095H26.5104C28.8834 29.5095 30.8072 27.5858 30.8072 25.2128V5.87743C30.8072 3.5044 28.8834 1.58069 26.5104 1.58069Z" stroke="#D5AD61" stroke-width="1.43225" stroke-miterlimit="10"/>
<path d="M11.4718 8.38381C11.4718 8.87954 11.3248 9.36413 11.0494 9.77631C10.774 10.1885 10.3826 10.5098 9.92456 10.6995C9.46657 10.8892 8.96261 10.9388 8.47641 10.8421C7.99021 10.7454 7.54361 10.5067 7.19308 10.1561C6.84254 9.8056 6.60384 9.359 6.50713 8.8728C6.41042 8.3866 6.46005 7.88264 6.64975 7.42465C6.83946 6.96666 7.16072 6.57519 7.5729 6.29978C7.98508 6.02437 8.46967 5.87738 8.9654 5.87738C9.63015 5.87738 10.2677 6.14144 10.7377 6.61149C11.2078 7.08154 11.4718 7.71907 11.4718 8.38381V8.38381Z" stroke="#D5AD61" stroke-width="1.43225" stroke-miterlimit="10"/>
<path d="M11.4718 22.7063C11.4718 23.202 11.3248 23.6866 11.0494 24.0988C10.774 24.511 10.3826 24.8323 9.92456 25.022C9.46657 25.2117 8.96261 25.2613 8.47641 25.1646C7.99021 25.0679 7.54361 24.8292 7.19308 24.4786C6.84254 24.1281 6.60384 23.6815 6.50713 23.1953C6.41042 22.7091 6.46005 22.2051 6.64975 21.7472C6.83946 21.2892 7.16072 20.8977 7.5729 20.6223C7.98508 20.3469 8.46967 20.1999 8.9654 20.1999C9.63015 20.1999 10.2677 20.464 10.7377 20.934C11.2078 21.404 11.4718 22.0416 11.4718 22.7063Z" stroke="#D5AD61" stroke-width="1.43225" stroke-miterlimit="10"/>
<path d="M25.7943 8.38381C25.7943 8.87954 25.6473 9.36413 25.3719 9.77631C25.0965 10.1885 24.705 10.5098 24.247 10.6995C23.789 10.8892 23.2851 10.9388 22.7989 10.8421C22.3127 10.7454 21.8661 10.5067 21.5155 10.1561C21.165 9.8056 20.9263 9.359 20.8296 8.8728C20.7329 8.3866 20.7825 7.88264 20.9722 7.42465C21.1619 6.96666 21.4832 6.57519 21.8954 6.29978C22.3075 6.02437 22.7921 5.87738 23.2879 5.87738C23.9526 5.87738 24.5901 6.14144 25.0602 6.61149C25.5302 7.08154 25.7943 7.71907 25.7943 8.38381V8.38381Z" stroke="#D5AD61" stroke-width="1.43225" stroke-miterlimit="10"/>
<path d="M25.7943 22.7063C25.7943 23.202 25.6473 23.6866 25.3719 24.0988C25.0965 24.511 24.705 24.8323 24.247 25.022C23.789 25.2117 23.2851 25.2613 22.7989 25.1646C22.3127 25.0679 21.8661 24.8292 21.5155 24.4786C21.165 24.1281 20.9263 23.6815 20.8296 23.1953C20.7329 22.7091 20.7825 22.2051 20.9722 21.7472C21.1619 21.2892 21.4832 20.8977 21.8954 20.6223C22.3075 20.3469 22.7921 20.1999 23.2879 20.1999C23.9526 20.1999 24.5901 20.464 25.0602 20.934C25.5302 21.404 25.7943 22.0416 25.7943 22.7063Z" stroke="#D5AD61" stroke-width="1.43225" stroke-miterlimit="10"/>
<path d="M18.633 15.5451C18.633 16.0409 18.4861 16.5254 18.2106 16.9376C17.9352 17.3498 17.5438 17.6711 17.0858 17.8608C16.6278 18.0505 16.1238 18.1001 15.6376 18.0034C15.1514 17.9067 14.7048 17.668 14.3543 17.3175C14.0038 16.9669 13.7651 16.5203 13.6683 16.0341C13.5716 15.5479 13.6213 15.044 13.811 14.586C14.0007 14.128 14.3219 13.7365 14.7341 13.4611C15.1463 13.1857 15.6309 13.0387 16.1266 13.0387C16.7914 13.0387 17.4289 13.3028 17.8989 13.7728C18.369 14.2429 18.633 14.8804 18.633 15.5451V15.5451Z" stroke="#D5AD61" stroke-width="1.43225" stroke-miterlimit="10"/>
</svg>
