<?xml version="1.0" encoding="utf-8"?><svg xmlns="http://www.w3.org/2000/svg" xmlns:xlink="http://www.w3.org/1999/xlink"><symbol viewBox="0 0 30 30" id="crown" xmlns="http://www.w3.org/2000/svg"><path fill-rule="evenodd" clip-rule="evenodd" d="M26.769 9.233l-2.58 7.53a.946.946 0 01-1.19.581.916.916 0 01-.594-1.165l2.339-6.826c-.31-.173-.625-.34-.938-.504l-2.275 3.306a.952.952 0 01-1.099.352l-2.351-.828a.925.925 0 01-.616-.754l-.573-4.57c-.547-.086-1.357-.19-2.114-.19-.749 0-1.535.102-2.066.188l-.575 4.572a.925.925 0 01-.615.754l-2.351.828a.952.952 0 01-1.1-.352l-2.277-3.31c-.328.167-.66.337-.981.512L8.38 21.02l.018.065.009.032.008.047.007.047.002.032c.002.02.004.042.004.063V24.07h12.698v-1.84H11.25a.93.93 0 01-.94-.92.93.93 0 01.94-.92h10.816c.52 0 .941.412.941.92v3.68a.93.93 0 01-.94.92H7.487a.93.93 0 01-.94-.92v-3.53L2.787 9.231a.91.91 0 01.395-1.072c.61-.371 1.285-.715 1.882-1.018.21-.107.408-.208.597-.306a.953.953 0 011.223.298l2.34 3.399 1.117-.394.588-4.678c.048-.387.34-.701.728-.786.066-.014 1.616-.35 3.12-.35 1.503 0 3.096.334 3.163.349a.928.928 0 01.734.787l.588 4.678 1.118.394 2.339-3.4a.953.953 0 011.223-.297l.332.172c.659.342 1.405.73 2.1 1.152a.91.91 0 01.395 1.073zm-6.576 6.174a.955.955 0 00-1.33 0 .906.906 0 000 1.301c.367.36.963.36 1.33 0a.905.905 0 000-1.301zM9.457 15.36a.905.905 0 000 1.3c.367.36.963.36 1.33 0a.905.905 0 000-1.3.955.955 0 00-1.33 0zm3.957-.362c0 .762.632 1.38 1.411 1.38s1.41-.618 1.41-1.38c0-.762-.631-1.38-1.41-1.38-.78 0-1.41.618-1.41 1.38z"/></symbol><symbol viewBox="0 0 30 30" id="dice" xmlns="http://www.w3.org/2000/svg"><path fill-rule="evenodd" clip-rule="evenodd" d="M8.906 7.782a.94.94 0 11-1.881 0 .94.94 0 011.881 0zm5.455 5.455a.94.94 0 100 1.881.94.94 0 000-1.88zm0-6.396a.94.94 0 100 1.881.94.94 0 000-1.88zm-6.396 6.396a.94.94 0 100 1.881.94.94 0 000-1.88zm17.495 5.456v-3.575a1.883 1.883 0 00-1.88-1.88h-4.516v1.88a3.767 3.767 0 01-3.762 3.763h-1.881v4.515c0 1.037.844 1.88 1.881 1.88h8.277a1.883 1.883 0 001.881-1.88.94.94 0 111.881 0 3.766 3.766 0 01-3.762 3.762h-8.277a3.766 3.766 0 01-3.762-3.762V18.88H7.025a3.766 3.766 0 01-3.762-3.763V6.841A3.766 3.766 0 017.025 3.08h8.277a3.766 3.766 0 013.762 3.762v4.515h4.515a3.766 3.766 0 013.762 3.762v3.575a.94.94 0 11-1.88 0zM17.183 6.84a1.883 1.883 0 00-1.881-1.88H7.025a1.883 1.883 0 00-1.881 1.88v8.277c0 1.038.844 1.882 1.88 1.882h8.278a1.883 1.883 0 001.881-1.882V6.841zm1.411 12.416a.94.94 0 101.881 0 .94.94 0 00-1.88 0zm4.045-4.139a.94.94 0 100 1.882.94.94 0 000-1.882zm-7.337 7.337a.94.94 0 101.881 0 .94.94 0 00-1.881 0zm7.337-.94a.94.94 0 100 1.88.94.94 0 000-1.88z"/></symbol><symbol viewBox="0 0 30 30" id="hearts" xmlns="http://www.w3.org/2000/svg"><path fill-rule="evenodd" clip-rule="evenodd" d="M25.064 6c-1.127-1.123-2.713-1.717-4.588-1.717-2.048 0-3.818.872-5.118 2.522-.15.191-.287.383-.41.57a7.557 7.557 0 00-.393-.563c-1.277-1.654-3.068-2.53-5.178-2.53-1.874 0-3.46.595-4.588 1.718-1.262 1.258-1.902 3.096-1.902 5.463 0 2.298 1.344 5.054 3.995 8.193 2.021 2.394 4.49 4.61 6.127 5.884a3.116 3.116 0 003.836 0 42.394 42.394 0 003.023-2.619.94.94 0 00-1.293-1.365 40.34 40.34 0 01-2.886 2.5c-.449.349-1.075.349-1.524 0-1.562-1.217-3.918-3.33-5.846-5.613-2.323-2.751-3.55-5.165-3.55-6.98 0-4.38 2.506-5.299 4.608-5.299 3.617 0 4.6 3.473 4.64 3.627l.005.013a.902.902 0 00.056.15l.012.025c.01.02.021.039.033.058l.011.02a.991.991 0 00.044.062l.007.009a.94.94 0 001.553-.1v-.003a.97.97 0 00.084-.187l.006-.02c.003-.01.298-.968 1.044-1.895.94-1.167 2.152-1.759 3.604-1.759 2.103 0 4.61.92 4.61 5.299 0 1.754-1.146 4.026-3.406 6.752a.94.94 0 001.449 1.2c2.582-3.115 3.837-5.717 3.837-7.952 0-2.367-.64-4.205-1.902-5.463z"/></symbol><symbol viewBox="0 0 133 133" id="play" xmlns="http://www.w3.org/2000/svg"><g filter="url(#dfilter0_di)"><circle cx="66.5" cy="62.5" r="59"/><path d="M91.871 62.5L53.815 84.472V40.528L91.87 62.5z"/></g><defs><filter id="dfilter0_di" x="0" y="0" width="133" height="133" filterUnits="userSpaceOnUse" color-interpolation-filters="sRGB"><feFlood flood-opacity="0" result="BackgroundImageFix"/><feColorMatrix in="SourceAlpha" values="0 0 0 0 0 0 0 0 0 0 0 0 0 0 0 0 0 0 127 0" result="hardAlpha"/><feOffset dy="4"/><feGaussianBlur stdDeviation="3"/><feColorMatrix values="0 0 0 0 0 0 0 0 0 0 0 0 0 0 0 0 0 0 0.4 0"/><feBlend in2="BackgroundImageFix" result="effect1_dropShadow"/><feBlend in="SourceGraphic" in2="effect1_dropShadow" result="shape"/><feColorMatrix in="SourceAlpha" values="0 0 0 0 0 0 0 0 0 0 0 0 0 0 0 0 0 0 127 0" result="hardAlpha"/><feOffset dy="1"/><feComposite in2="hardAlpha" operator="arithmetic" k2="-1" k3="1"/><feColorMatrix values="0 0 0 0 1 0 0 0 0 1 0 0 0 0 1 0 0 0 0.5 0"/><feBlend in2="shape" result="effect2_innerShadow"/></filter></defs></symbol><symbol viewBox="0 0 30 30" id="poker2" xmlns="http://www.w3.org/2000/svg"><path fill-rule="evenodd" clip-rule="evenodd" d="M18.185 21.658s.178-.614.776-.614c.429 0 .776.249.776.879 0 .669-.952 1.554-1.365 1.878a.303.303 0 01-.375 0c-.412-.324-1.364-1.21-1.364-1.878 0-.63.347-.879.776-.879.618 0 .776.614.776.614zM8.966 9.128c.413-.324 1.365-1.21 1.365-1.878 0-.63-.347-.879-.776-.879-.598 0-.776.614-.776.614s-.158-.614-.776-.614c-.429 0-.776.249-.776.879 0 .669.952 1.554 1.365 1.878.11.087.264.087.374 0zm15.944 9.565V6.84a1.883 1.883 0 00-1.881-1.88h-.506c.321.553.506 1.195.506 1.88v16.555c0 .685-.185 1.327-.506 1.88h.506a1.883 1.883 0 001.881-1.88.94.94 0 111.881 0 3.766 3.766 0 01-3.762 3.762H7.697a3.766 3.766 0 01-3.762-3.762V6.84A3.766 3.766 0 017.697 3.08H23.03A3.766 3.766 0 0126.79 6.84v11.852a.94.94 0 11-1.881 0zM19.267 4.96H7.697a1.883 1.883 0 00-1.88 1.881v16.555c0 1.037.843 1.88 1.88 1.88h11.57a1.883 1.883 0 001.88-1.88V6.84a1.883 1.883 0 00-1.88-1.88zm-3.88 6.02c.838 0 1.557.275 2.078.797.572.571.861 1.378.861 2.4 0 .975-.532 2.101-1.58 3.347a16.395 16.395 0 01-2.296 2.214 1.722 1.722 0 01-2.124 0 16.396 16.396 0 01-2.296-2.214c-1.049-1.246-1.58-2.372-1.58-3.348 0-1.02.29-1.828.86-2.4.522-.52 1.24-.796 2.08-.796.881 0 1.54.341 2.01.782a2.845 2.845 0 011.987-.782zm0 1.881c-.777 0-1.06.767-1.098.882a.935.935 0 01-.9.693h-.017a.932.932 0 01-.893-.72c-.047-.159-.301-.855-1.09-.855-.523 0-1.058.156-1.058 1.315 0 .99 1.538 2.791 3.057 4.003 1.52-1.212 3.057-3.013 3.057-4.003 0-1.159-.535-1.315-1.058-1.315z"/></symbol><symbol viewBox="0 0 30 30" id="slots" xmlns="http://www.w3.org/2000/svg"><path fill-rule="evenodd" clip-rule="evenodd" d="M25.035 17.749c-1.055-1.053-2.339-1.435-3.52-1.048-.957.313-1.71 1.088-2.085 2.103-2.546-2.622-3.425-7.015-3.727-9.736 1.276.986 2.652 1.505 4.11 1.547.063.002.126.002.188.002 3.134 0 5.504-2.23 6.389-3.203a.943.943 0 00-.63-1.575c-1.4-.097-2.402-.767-3.372-1.415-.99-.661-2.014-1.345-3.354-1.345-2.617 0-3.744 1.335-4.566 2.31a7.798 7.798 0 01-.52.58.941.941 0 00-.286.775c-.011.851-.215 8.284-3.887 12.06-.374-1.014-1.127-1.79-2.084-2.103-1.182-.387-2.465-.005-3.52 1.048a5.44 5.44 0 00-1.606 3.878c0 1.486.582 2.886 1.64 3.94A5.57 5.57 0 008.149 27.2a5.476 5.476 0 003.881-1.597c1.035-1.033 1.402-2.313 1.009-3.513-.294-.893-.983-1.623-1.864-2.027.797-.835 1.497-1.85 2.09-3.035.533-1.064.98-2.268 1.338-3.59.357 1.322.805 2.526 1.337 3.59.593 1.186 1.293 2.2 2.09 3.035-.88.404-1.57 1.134-1.863 2.027-.394 1.2-.027 2.48 1.008 3.513a5.465 5.465 0 003.883 1.6c.607 0 1.213-.1 1.794-.296a.943.943 0 00-.604-1.785 3.618 3.618 0 01-3.746-.855c-.527-.526-.717-1.075-.549-1.588.176-.534.725-.957 1.366-1.053a2.083 2.083 0 001.764-1.737c.108-.681.506-1.23 1.015-1.396.493-.161 1.065.049 1.61.592a3.58 3.58 0 01.946 3.417.94.94 0 101.826.45 5.452 5.452 0 00-1.445-5.202zm-14.332 6.517c-1.416 1.413-3.736 1.398-5.171-.034a3.659 3.659 0 01-1.086-2.605c0-.963.373-1.866 1.052-2.542.544-.544 1.116-.754 1.61-.593.509.167.907.715 1.014 1.396a2.083 2.083 0 001.765 1.737c.64.096 1.19.519 1.365 1.053.168.513-.022 1.062-.55 1.588zm5.201-17.66c.713-.845 1.386-1.643 3.13-1.643.77 0 1.45.454 2.31 1.03.669.446 1.44.96 2.39 1.315-.968.742-2.32 1.467-3.868 1.423-1.412-.04-2.758-.735-4.01-2.067l.048-.058z"/></symbol><symbol viewBox="0 0 30 30" id="star" xmlns="http://www.w3.org/2000/svg"><path fill-rule="evenodd" clip-rule="evenodd" d="M21.714 25.954c-.383 0-.767-.115-1.104-.345l-5.045-3.446a.326.326 0 00-.365 0l-5.044 3.446a1.94 1.94 0 01-2.239-.022 1.854 1.854 0 01-.714-2.083l1.782-5.784a.31.31 0 00-.11-.338l-4.777-3.615a1.853 1.853 0 01-.646-2.117 1.903 1.903 0 011.825-1.285h5.962a.31.31 0 00.302-.199l2.013-5.803a1.905 1.905 0 011.829-1.284c.84 0 1.557.504 1.829 1.284l2.013 5.803c.042.121.16.2.302.2h5.965c.837 0 1.552.504 1.824 1.284a1.852 1.852 0 01-.646 2.116l-4.779 3.616a.31.31 0 00-.11.338l.156.508a.92.92 0 01-.628 1.15.944.944 0 01-1.172-.616l-.157-.508a2.145 2.145 0 01.762-2.332l4.779-3.616c.02-.017.02-.02.02-.036-.002-.03-.02-.053-.026-.057 0 0-.006-.003-.023-.003h-5.965c-.945 0-1.782-.582-2.082-1.45L15.43 4.959c-.008-.024-.012-.034-.048-.034-.036 0-.04.01-.048.034L13.32 10.76c-.3.867-1.137 1.45-2.082 1.45H5.277a.075.075 0 00-.024.002c-.007.003-.023.027-.026.057 0 .016-.001.02.02.037l4.777 3.615a2.145 2.145 0 01.762 2.331l-1.783 5.785c-.007.024-.01.035.02.057.028.02.037.014.058 0l5.044-3.446a2.244 2.244 0 012.515 0l5.045 3.446c.02.014.03.02.058 0 .03-.022.027-.033.02-.057l-.262-.85a.92.92 0 01.628-1.149.944.944 0 011.172.616l.262.85a1.854 1.854 0 01-.715 2.082 1.95 1.95 0 01-1.134.367z"/></symbol><symbol viewBox="0 0 30 30" id="top" xmlns="http://www.w3.org/2000/svg"><path fill-rule="evenodd" clip-rule="evenodd" d="M23.133 3.397l2.668 4.39a.966.966 0 01-.06 1.094l-5.014 6.53a7.013 7.013 0 011.308 6.935 1.022 1.022 0 01-1.291.61.981.981 0 01-.627-1.258 5.05 5.05 0 00.293-1.7c0-2.86-2.39-5.185-5.329-5.185-2.938 0-5.328 2.326-5.328 5.185 0 2.859 2.39 5.185 5.329 5.185.757 0 1.488-.152 2.173-.45.512-.223 1.112 0 1.341.498a.977.977 0 01-.512 1.305 7.476 7.476 0 01-3.002.622c-4.058 0-7.36-3.212-7.36-7.16 0-1.785.675-3.418 1.788-4.673L4.48 8.936a.966.966 0 01-.072-1.095L7.05 3.404c.12-.2.308-.354.532-.433.127-.045 3.16-1.096 7.601-1.096 4.452 0 7.322 1.058 7.442 1.103.213.08.392.228.508.419zM6.505 8.26l4.534 5.758a7.433 7.433 0 012.705-1.062l-5.605-7.44L6.505 8.26zm8.83.084c-.987 0-1.875.105-2.41.185l2.309 3.064 5.26-7.163c-1.17-.27-3.013-.58-5.311-.58-2.258 0-4.131.3-5.355.567l1.812 2.406c.1-.063.213-.11.336-.136a18.19 18.19 0 013.36-.318c.56 0 1.014.442 1.014.987 0 .546-.454.988-1.015.988zm1.353 4.666a7.43 7.43 0 012.528 1.068l4.493-5.852-1.588-2.614-5.433 7.398zm-.388 9.21c0 .545-.455.988-1.016.988-.56 0-1.014-.443-1.014-.988v-2.156c-.372.157-.82.088-1.124-.207a.969.969 0 010-1.397l1.42-1.383c.291-.282.728-.367 1.107-.214.38.153.627.513.627.913v4.444z"/></symbol></svg>