<?xml version="1.0" standalone="no"?>
<!DOCTYPE svg PUBLIC "-//W3C//DTD SVG 20010904//EN"
 "http://www.w3.org/TR/2001/REC-SVG-20010904/DTD/svg10.dtd">
<svg version="1.0" xmlns="http://www.w3.org/2000/svg"
 width="1560.000000pt" height="1560.000000pt" viewBox="0 0 1560.000000 1560.000000"
 preserveAspectRatio="xMidYMid meet">
<metadata>
Created by potrace 1.14, written by Peter Selinger 2001-2017
</metadata>
<g transform="translate(0.000000,1560.000000) scale(0.100000,-0.100000)"
fill="#000000" stroke="none">
<path d="M6888 11355 c-2 -2 -41 -6 -88 -10 -47 -4 -92 -9 -101 -10 -8 -2 -51
-6 -95 -9 -43 -4 -90 -8 -104 -11 -14 -2 -58 -7 -97 -10 -40 -4 -80 -8 -90 -9
-19 -3 -36 -50 -46 -126 -8 -56 -17 -104 -22 -108 -6 -6 -524 -4 -534 2 -5 4
-12 2 -15 -2 -6 -10 -48 -8 -65 2 -5 4 -12 2 -15 -2 -6 -10 -48 -8 -65 2 -5 4
-12 2 -15 -2 -6 -10 -48 -8 -65 2 -5 4 -12 2 -15 -2 -6 -10 -48 -8 -65 2 -5 4
-12 2 -15 -2 -6 -10 -48 -8 -65 2 -5 4 -12 2 -15 -2 -6 -10 -48 -8 -65 2 -5 4
-12 2 -15 -2 -5 -8 -29 -9 -61 -2 -5 1 -14 1 -20 0 -5 -1 -21 -3 -34 -3 -27
-2 -35 -20 -46 -105 -3 -26 -8 -54 -11 -63 -4 -16 -12 -62 -18 -104 -1 -11 -5
-33 -9 -50 -4 -16 -9 -46 -11 -65 -3 -19 -14 -82 -24 -140 -11 -58 -23 -121
-26 -140 -3 -19 -8 -48 -11 -65 -7 -35 -22 -125 -30 -172 -10 -64 -19 -113
-31 -166 -3 -16 -7 -38 -9 -50 -4 -27 -14 -91 -22 -132 -3 -16 -7 -39 -9 -50
-1 -11 -10 -57 -18 -102 -8 -45 -17 -99 -21 -120 -3 -21 -8 -50 -10 -63 -6
-30 -14 -74 -21 -115 -2 -16 -13 -77 -24 -135 -10 -58 -21 -118 -24 -135 -3
-16 -7 -41 -10 -55 -3 -14 -7 -41 -10 -60 -3 -19 -8 -46 -12 -60 -13 -52 -11
-166 4 -210 34 -103 124 -196 241 -251 35 -16 66 -28 68 -25 3 3 17 0 31 -5
29 -11 2046 -15 2117 -4 104 16 187 49 285 113 58 39 160 134 160 151 0 5 4
11 8 13 8 3 55 98 66 130 4 14 21 107 51 273 3 17 12 71 21 120 9 50 18 99 19
110 2 11 28 162 59 335 30 173 58 331 61 350 3 19 8 45 10 57 2 12 6 34 9 50
3 15 8 44 11 63 5 35 10 62 21 110 3 14 7 41 9 60 3 19 7 46 10 58 3 13 8 43
11 65 3 23 7 48 10 56 3 8 7 30 10 50 3 20 7 47 10 61 15 87 35 202 39 226 3
16 11 65 20 109 8 44 15 81 15 82 0 1 -96 2 -214 1 -118 0 -219 3 -225 6 -5 4
-12 2 -15 -2 -6 -10 -48 -8 -65 2 -5 4 -12 2 -15 -2 -6 -10 -48 -8 -65 2 -5 4
-12 2 -15 -2 -6 -10 -48 -8 -65 2 -5 4 -12 2 -15 -2 -6 -10 -48 -8 -65 2 -5 4
-12 2 -15 -2 -6 -10 -48 -8 -65 2 -5 4 -12 2 -15 -2 -6 -10 -48 -8 -65 2 -5 4
-12 2 -15 -2 -6 -10 -48 -8 -65 2 -5 4 -12 3 -14 -1 -3 -5 -42 -7 -86 -5 -46
2 -79 8 -76 13 7 10 12 35 20 84 2 17 6 40 9 51 2 12 7 39 11 60 3 22 8 51 10
66 5 24 2 27 -25 26 -16 -1 -31 -2 -32 -3z m372 -789 c0 -7 -12 -80 -26 -162
-15 -82 -28 -158 -29 -169 -2 -11 -17 -96 -34 -190 -41 -229 -40 -227 -46
-255 -3 -14 -8 -45 -11 -70 -3 -25 -8 -48 -10 -51 -1 -3 -6 -28 -9 -55 -4 -27
-9 -58 -13 -69 -3 -11 -7 -29 -8 -40 -1 -11 -7 -48 -13 -83 -7 -34 -14 -79
-17 -100 -2 -20 -7 -44 -10 -53 -2 -10 -7 -31 -9 -48 -7 -42 -13 -76 -25 -141
-17 -90 -17 -93 -25 -140 -4 -25 -9 -47 -11 -49 -5 -5 -1488 -7 -1527 -2 -22
3 -26 7 -22 22 4 10 8 31 11 46 2 16 7 39 10 53 3 14 8 41 10 60 2 19 9 58 14
85 5 28 12 66 15 85 3 19 10 58 15 85 5 28 12 66 15 85 13 81 16 96 20 110 2
8 6 31 9 50 3 19 10 60 17 90 6 30 11 62 11 70 0 8 6 44 13 80 8 36 16 85 20
110 3 25 8 52 10 60 2 8 7 31 10 50 5 32 19 112 29 165 2 11 6 36 9 55 14 81
17 96 22 120 3 14 10 54 15 90 6 36 13 77 16 92 l5 26 775 1 c621 0 774 -3
774 -13z"/>
<path d="M14407 11354 c-1 -1 -33 -5 -72 -9 -38 -3 -81 -8 -95 -10 -14 -3 -59
-7 -100 -10 -82 -6 -117 -9 -200 -20 -30 -4 -69 -7 -87 -7 -32 1 -39 -10 -48
-78 -7 -47 -27 -155 -29 -157 -6 -6 -374 -5 -384 1 -6 3 -13 2 -16 -2 -6 -10
-48 -8 -65 2 -5 4 -12 2 -15 -2 -6 -10 -48 -8 -65 2 -5 4 -12 2 -15 -2 -6 -10
-48 -8 -65 2 -5 4 -12 2 -15 -2 -6 -10 -48 -8 -65 2 -5 4 -12 2 -15 -2 -6 -10
-48 -8 -65 2 -5 4 -12 2 -15 -2 -6 -10 -48 -8 -65 2 -5 4 -12 2 -15 -2 -5 -8
-29 -9 -61 -2 -5 1 -14 2 -20 1 -5 -1 -54 -2 -107 -2 -54 0 -100 -4 -103 -10
-4 -5 -8 -22 -11 -37 -3 -15 -9 -52 -15 -82 -6 -30 -12 -66 -14 -80 -2 -14 -5
-38 -8 -55 -3 -16 -13 -68 -21 -115 -8 -47 -17 -96 -20 -110 -3 -14 -7 -41
-10 -60 -3 -19 -10 -60 -16 -90 -6 -30 -13 -70 -16 -89 -2 -19 -9 -53 -14 -77
-6 -24 -10 -47 -9 -51 1 -5 0 -11 -1 -15 -1 -5 -4 -12 -5 -18 -1 -5 -3 -11 -4
-12 -1 -2 -4 -22 -5 -44 -2 -23 -6 -46 -9 -51 -3 -5 -9 -31 -12 -59 -7 -51
-10 -71 -19 -114 -3 -14 -10 -54 -16 -90 -6 -36 -13 -76 -16 -90 -2 -14 -7
-38 -9 -55 -3 -16 -7 -41 -10 -55 -3 -14 -8 -41 -11 -60 -3 -19 -12 -66 -19
-105 -12 -64 -20 -108 -30 -175 -2 -14 -8 -47 -14 -75 -5 -27 -7 -53 -5 -57 3
-5 0 -8 -6 -8 -6 0 -9 -4 -6 -8 3 -4 1 -26 -4 -48 -5 -21 -11 -59 -15 -84 -4
-25 -10 -62 -15 -82 -4 -20 -8 -64 -8 -98 0 -143 78 -256 236 -342 89 -49 79
-49 1164 -49 559 0 1043 3 1075 7 31 4 72 13 90 21 18 7 34 13 35 12 13 -4
151 70 196 106 108 83 188 211 208 332 2 15 7 39 9 53 3 14 7 36 10 50 8 51
25 146 30 170 3 14 7 39 10 55 2 17 7 41 9 55 3 13 8 40 11 60 5 34 7 46 19
110 3 14 8 41 10 60 3 19 8 46 11 60 3 14 8 41 11 60 3 19 7 42 9 50 2 8 7 35
11 60 7 49 12 75 14 75 1 0 3 16 5 36 1 20 5 45 9 55 3 10 7 33 10 49 5 32 33
192 41 235 2 14 6 37 9 53 3 15 10 53 15 85 6 31 13 74 17 96 3 21 8 48 10 60
2 11 7 36 10 55 3 18 8 43 10 55 2 11 7 35 9 51 11 65 45 251 49 272 8 37 20
117 20 133 1 13 -20 15 -130 16 -72 0 -138 4 -147 7 -9 3 -19 2 -21 -2 -6 -9
-49 -7 -65 3 -5 4 -12 2 -15 -2 -6 -10 -48 -8 -65 2 -5 4 -12 2 -15 -2 -6 -10
-48 -8 -65 2 -5 4 -12 2 -15 -2 -6 -10 -48 -8 -65 2 -5 4 -12 2 -15 -2 -6 -10
-48 -8 -65 2 -5 4 -12 2 -15 -2 -6 -10 -48 -8 -65 2 -5 4 -12 2 -15 -2 -5 -8
-29 -9 -61 -2 -5 1 -12 2 -15 1 -5 -2 -193 -3 -269 -2 l-44 1 8 43 c4 23 9 56
11 72 2 17 9 55 15 85 19 101 20 98 -18 97 -19 -1 -35 -2 -36 -3z m383 -782
c0 -8 -15 -98 -25 -152 -4 -19 -11 -57 -16 -85 -5 -27 -11 -66 -14 -85 -2 -19
-7 -46 -10 -60 -10 -46 -15 -75 -21 -120 -3 -25 -8 -47 -9 -50 -2 -3 -6 -24
-9 -46 -4 -22 -8 -51 -11 -64 -7 -36 -23 -129 -30 -170 -6 -38 -15 -92 -21
-125 -13 -70 -25 -133 -28 -151 -2 -12 -7 -39 -10 -60 -3 -22 -8 -50 -11 -64
-16 -88 -34 -185 -41 -230 -3 -19 -8 -44 -11 -55 -4 -11 -7 -27 -8 -35 -4 -74
-19 -130 -34 -131 -57 -3 -1491 -3 -1513 0 -23 3 -27 7 -23 25 5 24 13 65 21
116 3 19 7 42 9 50 3 8 7 33 10 55 3 22 8 51 11 65 3 14 7 38 10 54 2 16 11
66 19 110 8 45 17 95 20 111 2 17 7 41 9 55 3 14 8 41 10 60 3 19 8 46 11 60
7 36 24 129 31 174 3 21 8 48 10 60 4 23 23 125 29 165 2 14 9 47 14 75 6 28
13 69 16 91 3 22 7 47 10 55 2 8 7 31 9 50 3 19 7 44 9 55 3 11 11 54 18 95 7
41 14 78 15 83 1 4 2 11 3 16 1 11 1551 14 1551 3z"/>
<path d="M47 11062 c-9 -2 -19 -13 -22 -25 -10 -44 -16 -83 -21 -143 -12 -121
51 -195 176 -210 73 -8 83 -9 160 -19 69 -9 71 -10 65 -43 -4 -15 -8 -40 -11
-57 -3 -16 -9 -53 -15 -81 -5 -28 -12 -64 -14 -80 -9 -54 -15 -89 -20 -114 -3
-14 -8 -41 -11 -60 -8 -55 -12 -73 -18 -100 -3 -14 -8 -43 -11 -64 -3 -21 -7
-48 -10 -60 -5 -22 -13 -66 -19 -101 -4 -24 -15 -81 -21 -115 -3 -14 -7 -41
-10 -60 -3 -19 -10 -60 -17 -90 -6 -30 -12 -66 -13 -80 -3 -24 -8 -53 -20
-110 -3 -14 -7 -38 -10 -55 -7 -44 -22 -130 -31 -175 -2 -8 -6 -31 -8 -50 -3
-19 -8 -46 -11 -60 -8 -41 -58 -320 -69 -390 -3 -19 -7 -44 -10 -55 -2 -11 -7
-40 -12 -65 -4 -25 -8 -47 -9 -50 -13 -62 -18 -91 -21 -118 -1 -18 -6 -37 -9
-42 -6 -9 70 -7 180 5 22 2 76 7 120 10 44 3 98 8 120 11 59 7 151 15 227 19
37 2 71 6 76 9 6 3 15 36 22 73 7 38 14 77 16 88 2 11 11 61 20 110 17 99 22
128 29 165 18 98 48 270 51 293 2 15 6 39 9 55 8 42 34 188 41 228 3 20 8 46
10 58 5 26 12 65 19 109 3 17 8 39 10 47 3 8 7 32 9 52 5 36 20 124 31 178 3
14 8 43 10 65 3 22 8 47 10 55 2 8 7 31 10 50 3 19 10 60 16 90 6 30 12 66 14
80 15 87 18 108 19 133 0 15 5 27 9 27 5 0 5 5 2 10 -3 6 0 10 9 10 8 0 16 -3
18 -8 7 -17 257 -132 363 -167 172 -57 286 -82 455 -100 86 -9 90 -10 84 -37
-9 -47 -15 -84 -19 -110 -2 -15 -6 -35 -9 -45 -3 -10 -8 -36 -11 -58 -3 -23
-7 -50 -9 -60 -2 -11 -7 -40 -11 -65 -4 -25 -9 -54 -11 -65 -10 -50 -16 -82
-19 -105 -3 -14 -6 -34 -8 -45 -3 -11 -10 -52 -17 -92 -13 -83 -18 -106 -20
-113 -1 -3 -2 -8 -1 -12 0 -4 -6 -38 -13 -75 -8 -38 -17 -86 -20 -108 -2 -22
-17 -105 -32 -185 -14 -80 -27 -154 -29 -165 -1 -11 -3 -20 -4 -20 -1 0 -4
-12 -6 -26 -2 -15 -6 -44 -10 -65 -4 -22 -8 -48 -10 -59 -2 -11 -6 -33 -9 -50
-4 -16 -9 -46 -12 -65 -3 -19 -8 -43 -10 -53 -3 -10 -7 -32 -9 -50 -5 -46 -15
-107 -25 -147 -4 -19 -8 -42 -9 -50 0 -8 -3 -32 -6 -52 -4 -21 -5 -38 -3 -38
2 0 38 11 81 24 42 14 77 22 77 19 0 -3 6 -1 13 4 11 9 41 19 87 28 8 2 38 10
65 18 70 22 267 80 347 103 72 20 74 23 84 104 2 19 11 69 19 110 8 41 17 91
20 110 3 19 10 58 15 85 5 28 12 64 15 80 3 17 7 39 9 50 2 11 11 63 20 115 9
52 19 106 22 120 3 14 7 41 8 60 2 19 7 42 10 50 3 8 8 33 10 55 3 22 8 51 11
65 3 14 7 39 10 55 23 138 45 259 50 275 2 8 7 33 10 55 3 23 8 52 10 65 3 14
10 54 16 90 16 96 17 103 23 130 2 14 7 43 11 65 9 63 15 75 38 74 27 0 112
10 147 17 14 2 43 7 65 10 68 8 89 11 105 17 8 3 49 13 90 21 41 9 113 28 160
43 47 14 90 28 95 29 55 14 247 95 347 145 43 22 80 39 82 39 2 0 3 -8 1 -17
-2 -10 -4 -18 -5 -18 -1 0 -3 -9 -4 -20 -8 -56 -17 -112 -21 -125 -2 -8 -6
-31 -9 -50 -3 -19 -8 -48 -11 -65 -3 -16 -10 -55 -15 -85 -16 -94 -20 -114
-25 -140 -5 -26 -24 -131 -29 -165 -11 -65 -19 -112 -22 -130 -3 -11 -7 -36
-10 -55 -8 -45 -12 -65 -14 -65 -1 0 -3 -16 -5 -35 -3 -19 -7 -46 -10 -60 -3
-14 -9 -50 -15 -80 -5 -30 -12 -68 -15 -85 -3 -16 -8 -46 -10 -65 -3 -19 -8
-46 -11 -60 -3 -14 -7 -34 -9 -45 -10 -55 -17 -102 -20 -122 -2 -12 -6 -34 -9
-50 -4 -15 -8 -41 -11 -58 -2 -16 -10 -66 -19 -110 -8 -44 -17 -96 -20 -115
-5 -33 -9 -55 -21 -117 -3 -16 -8 -45 -11 -65 l-6 -38 351 0 c192 0 352 4 355
8 2 4 12 50 21 102 9 52 18 106 21 120 2 14 11 63 19 110 9 47 17 97 20 110 3
13 7 42 11 65 3 22 7 45 8 50 6 26 22 112 32 175 3 19 7 42 9 50 3 8 7 33 10
55 3 22 9 54 12 70 6 30 7 38 17 102 2 18 7 41 11 52 3 11 8 35 10 53 2 18 6
43 9 54 2 12 7 39 11 60 6 44 12 77 20 114 3 14 8 45 11 70 3 25 8 53 10 62 5
18 8 32 18 98 3 19 8 46 11 60 3 14 8 45 11 69 2 24 6 46 8 50 3 4 7 25 10 47
6 38 9 52 22 119 4 17 8 44 9 60 2 17 4 30 5 30 2 0 6 21 14 70 4 22 11 67 17
100 7 33 13 69 14 80 2 11 6 36 10 55 17 92 36 197 40 220 2 14 6 35 9 48 3
16 0 22 -12 23 -9 1 -167 1 -349 0 -367 -3 -337 2 -503 -73 -24 -11 -49 -21
-55 -23 -5 -1 -21 -7 -35 -12 -40 -16 -266 -93 -287 -96 -10 -2 -25 -6 -33
-10 -13 -4 -66 -18 -125 -32 -53 -13 -204 -45 -235 -50 -67 -12 -85 -15 -108
-19 -13 -3 -53 -8 -90 -12 -37 -3 -70 -8 -73 -10 -11 -6 -206 -17 -314 -17
-161 0 -294 17 -465 58 -36 8 -72 18 -80 22 -8 3 -24 8 -35 10 -11 1 -29 7
-40 12 -11 4 -56 23 -100 42 -89 37 -342 154 -365 169 -8 6 -26 15 -40 20 -14
6 -42 20 -63 31 -36 20 -53 20 -610 22 -316 1 -581 1 -590 -1z"/>
<path d="M8528 11060 c-22 -6 -25 -13 -43 -110 -29 -159 34 -252 179 -264 37
-4 71 -8 75 -10 3 -2 35 -7 70 -10 36 -4 68 -9 71 -11 4 -3 3 -26 -1 -52 -5
-27 -12 -61 -14 -78 -3 -16 -10 -52 -15 -80 -5 -27 -12 -66 -15 -85 -5 -29
-29 -162 -40 -221 -2 -9 -6 -32 -9 -50 -7 -43 -15 -87 -21 -119 -3 -14 -7 -43
-11 -65 -3 -22 -8 -49 -11 -60 -4 -11 -7 -31 -8 -45 -3 -26 -11 -74 -22 -125
-3 -16 -7 -37 -9 -45 -5 -39 -16 -100 -25 -145 -13 -68 -15 -83 -24 -135 -4
-25 -9 -54 -11 -65 -3 -11 -7 -35 -10 -54 -3 -18 -8 -43 -10 -55 -2 -11 -7
-37 -10 -56 -12 -76 -15 -94 -18 -99 -2 -3 -7 -26 -10 -51 -3 -25 -8 -56 -11
-70 -4 -14 -8 -41 -10 -60 -2 -19 -13 -82 -25 -140 -11 -58 -23 -121 -26 -140
-3 -19 -7 -46 -10 -60 -2 -14 -7 -46 -11 -73 l-6 -47 54 5 c53 6 88 9 224 20
39 3 90 7 115 10 25 3 74 7 110 10 36 3 92 8 125 11 33 3 69 6 80 7 19 2 25
17 40 107 14 83 16 96 20 110 2 8 7 33 10 55 3 23 8 52 10 65 9 41 18 104 19
123 0 9 3 17 6 17 3 0 6 10 7 23 2 40 12 106 17 115 2 4 7 26 10 48 3 21 7 49
10 60 2 12 7 39 10 60 4 22 11 64 16 94 5 30 12 71 15 90 3 19 8 42 10 50 2 8
7 31 10 50 5 33 18 106 30 175 2 17 7 40 9 51 2 12 7 39 10 60 3 22 8 50 11
64 8 38 12 61 20 110 13 85 15 88 38 39 12 -24 22 -46 22 -49 5 -17 128 -278
197 -415 105 -210 237 -449 329 -598 27 -43 49 -82 49 -87 0 -5 3 -10 8 -12 6
-2 85 -113 117 -165 6 -9 16 -23 23 -32 7 -9 41 -52 76 -96 34 -44 81 -99 104
-123 23 -24 42 -46 42 -48 0 -3 12 -16 28 -30 15 -14 45 -42 67 -63 22 -20 56
-48 75 -61 19 -13 37 -27 40 -30 16 -19 225 -129 254 -134 6 -1 21 -8 34 -14
12 -7 22 -10 22 -6 0 3 6 2 13 -3 16 -14 110 -36 222 -52 58 -9 298 -7 380 3
75 10 180 29 187 35 4 4 10 35 14 71 3 36 7 79 9 95 2 17 7 66 11 110 3 44 8
83 11 88 13 22 -14 24 -80 6 -87 -25 -182 -19 -173 9 3 9 8 32 11 50 3 17 7
47 10 65 3 17 8 39 10 47 3 8 7 31 9 50 3 20 11 74 20 120 9 47 18 101 22 120
3 19 12 71 20 115 8 44 17 92 19 106 2 14 13 75 24 135 19 103 27 150 37 219
3 17 7 41 11 55 3 14 7 32 8 40 1 13 8 57 20 121 6 31 17 94 20 114 3 17 18
103 49 280 3 17 8 41 11 55 3 14 7 39 10 55 2 17 7 41 10 55 3 14 7 41 10 60
3 20 10 60 15 90 6 30 13 69 15 85 3 17 9 53 14 80 6 28 12 64 15 80 4 29 51
294 61 345 3 14 8 45 11 70 l6 45 -321 -1 c-177 -1 -324 -4 -327 -6 -2 -3 -7
-20 -9 -39 -2 -19 -11 -74 -20 -124 -9 -49 -18 -102 -20 -117 -8 -45 -15 -88
-31 -173 -8 -44 -16 -89 -18 -100 -2 -11 -6 -33 -9 -50 -3 -16 -8 -46 -11 -65
-3 -19 -10 -60 -16 -90 -6 -30 -13 -71 -16 -90 -3 -19 -7 -46 -9 -60 -3 -14
-8 -40 -11 -59 -3 -18 -8 -43 -10 -55 -4 -20 -52 -290 -58 -331 -2 -11 -11
-58 -20 -105 -16 -89 -21 -120 -32 -184 -3 -22 -10 -49 -14 -62 -5 -12 -7 -24
-4 -27 3 -2 0 -24 -5 -48 -5 -24 -12 -60 -15 -79 -3 -19 -19 -109 -35 -200
-16 -91 -32 -181 -36 -200 -3 -19 -7 -44 -9 -55 -2 -11 -7 -40 -10 -64 -3 -25
-8 -46 -10 -49 -3 -2 -22 22 -43 55 -21 32 -40 60 -43 63 -3 3 -10 14 -17 25
-21 35 -127 204 -155 248 -15 23 -31 49 -35 57 -3 8 -18 33 -32 55 -31 50
-115 194 -151 260 -15 28 -39 70 -52 95 -87 156 -132 242 -133 252 0 3 -3 10
-8 14 -10 10 -170 337 -232 474 -26 58 -60 133 -76 168 -16 35 -29 65 -29 67
0 3 -11 29 -25 59 -28 61 -186 455 -189 471 -1 6 -7 20 -14 31 -6 12 -8 24 -5
28 3 3 0 6 -8 7 -74 4 -1203 3 -1221 -1z"/>
<path d="M4127 7484 c-1 -1 -36 -5 -77 -9 -41 -3 -86 -8 -100 -10 -23 -3 -48
-6 -210 -21 -36 -3 -74 -7 -85 -9 -11 -1 -32 -3 -47 -4 -26 -1 -37 -17 -44
-66 -12 -83 -16 -107 -27 -150 l-12 -50 -1098 0 c-966 0 -1099 -2 -1107 -15
-4 -8 -10 -33 -13 -55 -4 -22 -11 -65 -17 -95 -6 -30 -13 -72 -16 -93 -7 -46
-12 -72 -14 -72 -1 0 -3 -16 -5 -36 -1 -20 -5 -45 -9 -55 -3 -10 -8 -35 -11
-54 -5 -33 -18 -106 -30 -175 -2 -16 -7 -41 -10 -55 -3 -14 -7 -38 -10 -55 -6
-38 -14 -84 -20 -110 -2 -11 -7 -42 -11 -70 -3 -27 -9 -54 -12 -59 -2 -5 -6
-40 -8 -78 -6 -121 41 -226 132 -299 44 -35 142 -87 176 -93 13 -3 23 -5 23
-6 0 -1 11 -4 25 -7 14 -2 32 -6 40 -8 8 -2 405 -4 882 -4 l866 -1 -3 -38 c-9
-118 -101 -343 -180 -441 -57 -70 -136 -147 -185 -180 -85 -58 -248 -124 -360
-146 -3 -1 -18 -4 -35 -8 -104 -24 -380 -25 -590 -2 -27 3 -81 8 -120 11 -82
6 -116 10 -170 17 -22 4 -65 9 -95 12 -30 3 -62 8 -70 10 -8 2 -35 7 -60 10
-25 2 -56 7 -70 10 -14 3 -43 8 -65 11 -22 3 -54 9 -72 14 -34 9 -56 -8 -81
-60 -7 -14 -30 -54 -52 -89 -22 -34 -40 -65 -40 -68 0 -2 -16 -28 -35 -57 -19
-29 -35 -58 -35 -65 0 -6 -4 -11 -9 -11 -5 0 -11 -8 -15 -17 -5 -18 -12 -29
-49 -85 l-18 -27 73 -21 c98 -29 102 -30 110 -31 4 0 37 -9 73 -19 36 -10 65
-17 65 -15 0 3 11 0 26 -5 14 -6 37 -12 52 -15 15 -3 38 -7 52 -10 51 -11 175
-33 225 -41 17 -2 46 -7 65 -11 19 -3 49 -7 65 -8 38 -3 141 -15 163 -20 9 -1
69 -6 132 -11 235 -15 456 -8 632 21 42 7 58 10 96 19 9 2 31 7 47 11 37 8
183 53 210 65 93 39 253 123 310 163 267 188 433 400 594 760 16 37 28 67 25
67 -3 0 1 10 8 23 7 12 13 24 13 27 1 3 11 37 23 75 12 39 21 72 20 75 -1 3 4
14 10 26 6 11 13 32 16 45 2 13 11 53 20 89 8 36 17 76 20 90 3 14 7 34 9 45
3 11 8 40 12 65 4 25 9 54 11 65 2 10 6 37 9 60 6 41 12 79 20 126 4 20 0 28
-13 31 -9 2 -504 4 -1098 3 -1079 0 -1082 0 -1079 20 2 11 6 36 9 55 18 94 29
158 32 185 3 17 10 54 15 83 6 29 13 69 15 90 3 20 7 38 9 41 3 2 484 4 1070
4 l1064 0 6 26 c13 62 34 181 40 226 3 28 9 63 19 110 2 11 7 43 10 70 4 28
11 69 17 93 5 24 12 62 15 85 3 23 8 51 9 62 2 11 6 38 10 60 3 22 8 46 10 53
4 10 -9 12 -50 11 -30 -1 -56 -3 -58 -5z"/>
<path d="M9877 7484 c-1 -1 -36 -5 -77 -9 -41 -3 -93 -8 -115 -11 -22 -3 -58
-6 -80 -9 -22 -2 -66 -6 -97 -9 -32 -3 -84 -9 -115 -12 -32 -3 -62 -9 -67 -15
-6 -5 -8 -9 -5 -9 3 0 -4 -48 -16 -107 l-21 -108 -549 -2 c-303 -1 -568 -2
-591 -3 -25 0 -41 -5 -41 -12 -1 -20 -15 -102 -44 -258 -11 -58 -22 -119 -24
-136 -3 -18 -12 -66 -20 -109 -8 -42 -14 -80 -14 -83 1 -4 0 -9 -1 -12 -2 -7
-7 -28 -14 -70 -8 -49 -16 -91 -21 -120 -3 -14 -7 -43 -11 -65 -3 -22 -7 -47
-9 -55 -2 -8 -7 -31 -10 -50 -6 -36 -22 -129 -29 -165 -2 -11 -7 -40 -11 -65
-4 -25 -9 -54 -12 -65 -2 -11 -6 -33 -8 -50 -6 -40 -14 -85 -19 -111 -2 -12
-7 -37 -10 -55 -3 -19 -8 -44 -10 -55 -2 -12 -7 -37 -10 -55 -3 -19 -13 -72
-21 -119 -9 -47 -18 -103 -21 -125 -3 -22 -8 -47 -10 -55 -3 -8 -8 -31 -10
-50 -3 -19 -7 -46 -10 -60 -2 -14 -7 -41 -10 -60 -2 -19 -10 -62 -17 -95 -12
-60 -14 -140 -3 -184 30 -129 188 -269 336 -299 14 -2 495 -6 1070 -7 1004 -1
1048 -1 1125 18 44 11 83 24 87 31 4 6 8 8 8 4 0 -9 78 34 145 80 129 89 211
224 232 382 3 25 9 50 14 56 5 6 7 13 4 16 -3 3 1 36 9 74 8 38 17 87 20 109
3 22 8 52 11 68 3 15 7 39 10 54 2 15 9 49 14 77 6 28 12 65 15 81 3 27 19
111 31 175 3 13 7 42 11 64 3 22 7 43 9 46 2 4 7 28 10 56 4 27 8 60 10 72 2
13 8 45 14 70 10 44 16 80 26 142 2 14 8 50 14 80 33 181 43 238 47 265 3 17
9 50 14 75 5 25 12 59 14 75 5 32 25 146 31 180 2 11 4 20 5 20 1 0 3 9 4 20
1 11 5 36 9 55 4 19 9 49 11 65 3 17 10 52 15 80 5 27 8 51 6 53 -2 2 -263 3
-581 3 -318 0 -581 2 -585 4 -3 3 -1 31 7 62 7 32 15 79 18 105 4 26 8 53 10
60 3 7 7 26 10 41 l7 28 -56 -2 c-30 -1 -56 -4 -58 -5z m417 -789 c-7 -37 -33
-190 -39 -230 -4 -22 -8 -47 -11 -56 -2 -9 -7 -34 -10 -55 -2 -22 -6 -46 -9
-54 -2 -8 -7 -31 -10 -50 -3 -19 -15 -87 -26 -150 -11 -63 -22 -130 -25 -147
-2 -18 -8 -52 -13 -75 -6 -24 -13 -65 -17 -93 -3 -27 -8 -53 -10 -56 -2 -4 -6
-26 -9 -50 -3 -24 -7 -55 -10 -69 -3 -14 -8 -38 -10 -55 -3 -16 -8 -37 -10
-45 -2 -8 -7 -37 -11 -65 -3 -27 -8 -52 -9 -55 -2 -3 -6 -26 -10 -50 -3 -25
-9 -58 -12 -75 -3 -16 -7 -39 -8 -50 -3 -21 -7 -43 -25 -134 -5 -29 -10 -55
-10 -56 0 -2 -349 -3 -775 -3 -589 -1 -775 2 -775 11 0 7 9 59 19 117 11 58
22 121 25 140 3 19 12 71 20 115 9 44 18 94 20 110 3 17 8 46 11 65 4 19 8 44
10 55 2 11 6 29 8 40 3 11 8 40 11 65 3 25 8 56 11 70 3 14 9 48 14 75 6 28
13 66 15 85 7 43 14 85 23 130 3 19 7 42 9 50 2 8 6 31 9 50 4 19 9 49 11 65
2 17 6 41 9 55 3 14 19 107 37 207 28 165 33 182 52 185 12 2 361 3 777 3 752
0 757 0 753 -20z"/>
<path d="M14577 7484 c-1 -1 -36 -5 -77 -9 -41 -3 -86 -8 -100 -10 -14 -2 -59
-7 -100 -11 -142 -12 -274 -26 -277 -28 -1 0 -4 -19 -7 -41 -4 -23 -9 -52 -12
-65 -6 -27 -12 -63 -18 -111 -3 -17 -7 -34 -11 -37 -3 -4 -561 -6 -1240 -6
-1101 0 -1233 -2 -1233 -16 0 -8 -2 -31 -6 -50 -3 -19 -8 -60 -11 -91 -2 -31
-7 -72 -10 -90 -6 -40 -12 -91 -21 -170 l-6 -57 519 0 c638 -1 615 0 609 -11
-3 -4 -8 -23 -10 -42 -3 -19 -8 -45 -11 -59 -3 -14 -8 -41 -11 -60 -3 -19 -12
-69 -19 -110 -23 -120 -26 -133 -30 -170 -3 -19 -7 -44 -10 -56 -5 -23 -16
-87 -21 -119 -1 -11 -3 -20 -4 -20 -1 0 -3 -9 -5 -20 -9 -61 -33 -199 -52
-300 -3 -16 -7 -40 -8 -52 -2 -12 -6 -34 -9 -50 -9 -38 -11 -53 -30 -163 -9
-52 -18 -106 -21 -120 -3 -14 -8 -45 -11 -69 -3 -25 -7 -47 -9 -51 -2 -3 -6
-26 -10 -50 -3 -25 -11 -65 -16 -90 -6 -25 -12 -58 -14 -75 -2 -16 -10 -68
-19 -115 -8 -47 -17 -101 -21 -120 -3 -19 -8 -46 -10 -60 -13 -65 -16 -78 -21
-120 l-5 -45 360 3 c276 2 361 5 362 15 0 6 2 22 5 34 2 12 10 59 19 105 8 46
17 94 19 108 3 14 19 104 35 200 17 96 33 184 35 195 2 11 7 40 11 65 4 25 9
54 11 65 3 11 7 36 10 55 3 19 7 42 9 50 2 8 7 35 10 60 4 24 8 47 10 50 2 3
6 30 10 60 4 30 8 57 10 60 2 3 6 24 9 46 4 22 9 51 11 64 6 28 8 38 30 165
17 93 23 129 30 180 3 16 11 65 20 110 8 44 17 91 19 105 2 14 5 25 6 25 1 0
3 16 5 35 3 19 7 46 10 60 3 14 8 41 11 60 3 19 7 42 10 50 2 8 6 38 10 65 3
27 7 52 10 54 2 2 287 4 634 4 568 0 630 2 631 16 0 9 2 25 4 36 2 11 7 40 11
65 4 25 8 50 10 57 1 6 5 29 8 50 3 21 10 65 16 98 6 33 13 71 14 85 2 14 6
39 9 55 8 39 18 93 22 125 7 48 14 92 25 147 5 31 10 58 10 60 0 3 -110 0
-113 -3z"/>
<path d="M4560 7082 c-18 -110 -15 -165 10 -209 35 -64 71 -79 221 -99 74 -9
140 -17 148 -19 18 -2 21 -24 10 -73 -5 -22 -11 -54 -13 -73 -3 -19 -7 -45
-10 -59 -2 -14 -8 -47 -12 -75 -4 -27 -8 -54 -10 -60 -8 -40 -17 -96 -19 -126
-1 -20 -4 -40 -7 -45 -3 -5 -9 -29 -12 -54 -6 -43 -9 -63 -21 -120 -3 -14 -8
-45 -11 -70 -3 -25 -7 -52 -9 -60 -3 -8 -7 -33 -10 -55 -4 -22 -8 -51 -11 -65
-10 -53 -24 -134 -29 -170 -1 -14 -6 -41 -9 -60 -4 -19 -11 -60 -16 -90 -6
-30 -12 -65 -14 -77 -3 -11 -8 -43 -12 -70 -3 -26 -8 -57 -10 -68 -3 -11 -7
-36 -9 -55 -3 -19 -8 -44 -10 -56 -3 -12 -7 -39 -10 -60 -4 -21 -10 -52 -14
-69 -12 -47 -5 -149 14 -205 26 -78 135 -208 190 -226 11 -4 22 -10 25 -14 3
-5 34 -17 69 -29 63 -20 75 -21 1198 -21 l1134 0 58 122 c32 68 80 168 106
223 26 55 51 107 56 116 8 15 -80 16 -1067 14 l-1075 -2 5 26 c3 14 8 42 11
61 7 42 32 183 40 225 10 57 18 110 19 128 0 9 3 17 6 17 3 0 6 10 7 23 2 39
11 106 16 115 3 4 8 28 12 52 3 25 8 52 10 60 2 8 6 33 9 55 4 22 10 63 16 90
5 28 12 68 15 90 4 22 8 45 9 50 2 6 6 30 10 55 10 64 14 85 16 85 1 0 3 12 5
26 3 24 10 65 21 124 2 11 6 36 8 55 3 19 10 58 16 85 12 62 19 100 26 145 2
19 11 69 19 110 15 79 21 111 30 175 4 22 8 47 10 55 2 8 7 31 10 50 3 19 10
59 15 89 6 30 10 63 10 72 0 16 -36 18 -589 18 l-589 0 -12 -77z"/>
</g>
</svg>
