<svg width="195" height="89" viewBox="0 0 195 89" fill="none" xmlns="http://www.w3.org/2000/svg">
<path d="M50.9869 64.3212C50.818 65.5712 50.6322 66.8042 50.4126 68.0035C47.9578 81.8879 40.3119 88.83 27.4747 88.83C21.8549 88.6786 16.2812 87.7695 10.9045 86.1275L14.5192 80.0468C18.8675 80.8713 23.2716 81.368 27.6943 81.5331C30.7967 81.7244 33.8823 80.9515 36.5283 79.3204C37.783 78.3211 38.8265 77.0822 39.5978 75.6758C40.3692 74.2693 40.8529 72.7235 41.0211 71.1283H20.11C18.6031 71.132 17.1369 70.6393 15.938 69.7263C15.2413 69.2225 14.7093 68.5239 14.4087 67.7184C14.1081 66.9129 14.0525 66.0365 14.2489 65.1995L16.4955 52.4299H44.1123L44.7035 49.153L52.9632 48.3254L51.2741 58.3417H24.5524L23.5052 64.3212H50.9869Z" fill="url(#paint0_linear)"/>
<path d="M94.1099 79.1515L91.2554 85.1309H63.8749C63.1532 85.1492 62.4354 85.021 61.7647 84.7539C61.0941 84.4868 60.4846 84.0864 59.9732 83.577C59.3205 83.0247 58.8297 82.3057 58.5531 81.4967C58.2765 80.6877 58.2243 79.8189 58.4022 78.9827L62.0169 57.5986L58.2841 57.1088C57.1017 56.6189 56.5949 55.5716 56.9158 53.9839L57.1861 52.5143H71.9488L67.2362 79.236L94.1099 79.1515Z" fill="url(#paint1_linear)"/>
<path d="M134.006 79.2359C133.844 80.1565 133.486 81.0313 132.956 81.8008C132.425 82.5704 131.735 83.2165 130.932 83.6952C129.641 84.6421 128.091 85.1724 126.49 85.2154H101.964C100.517 85.2246 99.1214 84.6808 98.0622 83.6952C97.4143 83.1711 96.9291 82.4735 96.663 81.6839C96.3968 80.8943 96.3605 80.0453 96.5588 79.2359L101.339 52.109H116.068L116.592 49.153L124.851 48.3254L124.176 52.109H138.854L134.006 79.2359ZM125.003 79.2359L128.719 58.0884H109.312L105.579 79.2359H125.003Z" fill="url(#paint2_linear)"/>
<path d="M183.632 48.3254L181.943 58.3417H166.201L161.471 85.1309H152.452L157.181 58.3417H143.094L143.803 52.4299H174.714L175.288 49.153L183.632 48.3254Z" fill="url(#paint3_linear)"/>
<path d="M58.2164 4.05378L52.4396 36.7549H43.5887L48.0987 11.1819C43.7765 13.531 39.0024 14.9304 34.096 15.2864L30.1435 37.667L20.8196 40.3864L25.2451 15.3033C21.1268 15.0486 17.1298 13.8089 13.5902 11.6886L9.2155 36.4509L0.0604911 37.2616L5.1278 8.81707L1.44567 8.32726C0.263299 7.83742 -0.243498 6.79013 0.111214 5.21927L0.36462 3.73285H15.0428C17.1711 4.78009 19.2825 5.79364 21.4108 6.77332C24.4359 7.97848 27.6641 8.59203 30.9204 8.58067C37.3098 8.32579 43.5876 6.82227 49.3993 4.15512L58.2164 4.05378Z" fill="url(#paint4_linear)"/>
<path d="M96.1031 30.9106C95.9412 31.8311 95.5828 32.7059 95.0523 33.4755C94.5218 34.245 93.8316 34.8911 93.0288 35.3698C91.7309 36.317 90.1757 36.8472 88.5695 36.8899H64.0606C62.6138 36.8991 61.2182 36.3554 60.1589 35.3698C59.5113 34.8451 59.0249 34.1482 58.756 33.3593C58.487 32.5704 58.4464 31.7216 58.6387 30.9106L63.4357 3.76667H78.0972L78.6207 0.827644L86.8804 0L86.2216 3.76667H100.866L96.1031 30.9106ZM87.0831 30.9106L90.8162 9.76296H71.3915L67.6584 30.9106H87.0831Z" fill="url(#paint5_linear)"/>
<path d="M147.722 41.6703C145.965 42.028 144.178 42.2203 142.384 42.2446C140.238 42.2252 138.119 41.7568 136.164 40.8695C134.209 39.9823 132.462 38.6958 131.034 37.0928C127.306 33.2078 123.213 26.2657 118.754 16.2662L115.207 36.4341L106.035 37.2448L111.102 8.8003L107.42 8.3105C106.238 7.82066 105.731 6.77347 106.069 5.20261L106.339 3.71619H121.879C125.832 14.4673 131.055 24.7081 137.435 34.2214L142.807 3.71619H150.931L145.036 37.0928C145.481 37.2195 145.943 37.2709 146.405 37.2448C147.334 36.9746 147.925 36.8057 148.212 36.755L147.722 41.6703Z" fill="url(#paint6_linear)"/>
<path d="M190.203 30.9106C190.041 31.8311 189.683 32.7059 189.152 33.4755C188.622 34.245 187.931 34.8911 187.129 35.3698C185.832 36.3199 184.276 36.8504 182.67 36.8899H158.161C156.714 36.8991 155.318 36.3554 154.259 35.3698C153.611 34.8451 153.125 34.1482 152.856 33.3593C152.587 32.5704 152.546 31.7216 152.739 30.9106L157.536 3.76667H172.214L172.721 0.827644L180.981 0L180.322 3.76667H195L190.203 30.9106ZM181.183 30.9106L184.916 9.76296H165.491L161.759 30.9106H181.183Z" fill="url(#paint7_linear)"/>
<defs>
<linearGradient id="paint0_linear" x1="78317.9" y1="25636.3" x2="78317.9" y2="26557" gradientUnits="userSpaceOnUse">
<stop stop-color="white"/>
<stop offset="1"/>
</linearGradient>
<linearGradient id="paint1_linear" x1="69482.5" y1="20658.5" x2="69482.5" y2="21399.9" gradientUnits="userSpaceOnUse">
<stop stop-color="white"/>
<stop offset="1"/>
</linearGradient>
<linearGradient id="paint2_linear" x1="79078.5" y1="23352.9" x2="79078.5" y2="24191.5" gradientUnits="userSpaceOnUse">
<stop stop-color="white"/>
<stop offset="1"/>
</linearGradient>
<linearGradient id="paint3_linear" x1="75619.6" y1="23299.5" x2="75619.6" y2="24136.1" gradientUnits="userSpaceOnUse">
<stop stop-color="white"/>
<stop offset="1"/>
</linearGradient>
<linearGradient id="paint4_linear" x1="108399" y1="22111.3" x2="108399" y2="22981.8" gradientUnits="userSpaceOnUse">
<stop stop-color="#FFB100"/>
<stop offset="1" stop-color="#AE6200"/>
</linearGradient>
<linearGradient id="paint5_linear" x1="78908.5" y1="22250.2" x2="78908.5" y2="23126.4" gradientUnits="userSpaceOnUse">
<stop stop-color="#FFB100"/>
<stop offset="1" stop-color="#AE6200"/>
</linearGradient>
<linearGradient id="paint6_linear" x1="83831.5" y1="23242.1" x2="83831.5" y2="24157.2" gradientUnits="userSpaceOnUse">
<stop stop-color="#FFB100"/>
<stop offset="1" stop-color="#AE6200"/>
</linearGradient>
<linearGradient id="paint7_linear" x1="79065.4" y1="22250.2" x2="79065.4" y2="23126.4" gradientUnits="userSpaceOnUse">
<stop stop-color="#FFB100"/>
<stop offset="1" stop-color="#AE6200"/>
</linearGradient>
</defs>
</svg>
