<svg width="30" height="30" viewBox="0 0 30 30" fill="none" xmlns="http://www.w3.org/2000/svg">
<path fill-rule="evenodd" clip-rule="evenodd" d="M26.7686 9.23332L24.189 16.7639C24.0241 17.2457 23.4909 17.5052 22.9985 17.3441C22.5059 17.1825 22.2405 16.6609 22.4054 16.1792L24.7436 9.35266C24.434 9.1798 24.1193 9.01288 23.8062 8.84924L21.5307 12.1549C21.2901 12.5045 20.8375 12.6497 20.432 12.5069L18.0806 11.6788C17.7465 11.561 17.5089 11.2697 17.4654 10.9252L16.8915 6.35584C16.3452 6.26923 15.5349 6.16588 14.7779 6.16588C14.0292 6.16588 13.2435 6.26706 12.7117 6.35276L12.1372 10.9252C12.094 11.2697 11.8561 11.561 11.5222 11.6788L9.17099 12.5069C8.76546 12.6497 8.31268 12.5045 8.07193 12.1549L5.79391 8.8449C5.46608 9.01182 5.13421 9.18196 4.81265 9.35736L8.38058 21.0192C8.38887 21.0448 8.39401 21.0648 8.39919 21.0844C8.40192 21.0952 8.40527 21.1058 8.40763 21.1165C8.41097 21.1318 8.41319 21.1473 8.41573 21.1627C8.41851 21.1786 8.42143 21.1944 8.42332 21.2105C8.4244 21.2207 8.42478 21.2314 8.42548 21.242C8.42718 21.2628 8.42864 21.2838 8.42883 21.3047C8.42883 21.3066 8.42902 21.3086 8.42902 21.3106V24.071H21.1269V22.2307H11.2507C10.7313 22.2307 10.3102 21.8187 10.3102 21.3106C10.3102 20.8026 10.7313 20.3905 11.2507 20.3905H22.0675C22.5869 20.3905 23.008 20.8026 23.008 21.3106V24.9911C23.008 25.4995 22.5869 25.9113 22.0675 25.9113H7.48843C6.96897 25.9113 6.54803 25.4995 6.54803 24.9911V21.4602L2.78677 9.23221C2.64908 8.82831 2.81255 8.3843 3.18235 8.15958C3.79163 7.789 4.46749 7.44539 5.0639 7.14198C5.27406 7.03504 5.47249 6.93404 5.66098 6.83572C6.08639 6.61403 6.61466 6.7426 6.88377 7.13392L9.22306 10.5327L10.3407 10.139L10.9285 5.46055C10.9771 5.0743 11.2688 4.75973 11.6572 4.67491C11.7225 4.66067 13.2728 4.32578 14.7779 4.32578C16.28 4.32578 17.8726 4.65943 17.9396 4.67367C18.3306 4.75646 18.6254 5.07213 18.6742 5.46055L19.2619 10.139L20.3796 10.5327L22.719 7.13392C22.9883 6.7426 23.5162 6.61403 23.9417 6.83572C24.0502 6.89241 24.1612 6.95004 24.274 7.00839C24.9327 7.35034 25.6793 7.73733 26.3733 8.15958C26.7433 8.38462 26.9069 8.82905 26.7686 9.23332ZM20.1927 15.4069C19.8253 15.0475 19.2301 15.0475 18.8627 15.4069C18.4955 15.7661 18.4955 16.3488 18.8627 16.7081C19.2301 17.0675 19.8255 17.0675 20.1927 16.7081C20.5603 16.3488 20.5603 15.7661 20.1927 15.4069ZM9.45702 15.3609C9.08943 15.7202 9.08943 16.3027 9.45702 16.6619C9.82423 17.0215 10.4197 17.0215 10.7869 16.6619C11.1545 16.3027 11.1545 15.7202 10.7869 15.3609C10.4197 15.0014 9.82423 15.0014 9.45702 15.3609ZM13.4141 14.9994C13.4141 15.7615 14.0458 16.3796 14.825 16.3796C15.6039 16.3796 16.2358 15.7615 16.2358 14.9994C16.2358 14.2372 15.6039 13.619 14.825 13.619C14.0458 13.619 13.4141 14.2372 13.4141 14.9994Z" fill="#9FA3FF"/>
</svg>
