<svg width="30" height="30" viewBox="0 0 30 30" fill="none" xmlns="http://www.w3.org/2000/svg">
<path fill-rule="evenodd" clip-rule="evenodd" d="M8.90605 7.78187C8.90605 8.30138 8.48498 8.72245 7.96546 8.72245C7.44595 8.72245 7.02488 8.30138 7.02488 7.78187C7.02488 7.26235 7.44595 6.84128 7.96546 6.84128C8.48498 6.84128 8.90605 7.26235 8.90605 7.78187ZM14.3614 13.2373C13.8419 13.2373 13.4208 13.6583 13.4208 14.1778C13.4208 14.6974 13.8419 15.1184 14.3614 15.1184C14.8809 15.1184 15.302 14.6974 15.302 14.1778C15.302 13.6583 14.8809 13.2373 14.3614 13.2373ZM14.3614 6.84128C13.8419 6.84128 13.4208 7.26235 13.4208 7.78187C13.4208 8.30138 13.8419 8.72245 14.3614 8.72245C14.8809 8.72245 15.302 8.30138 15.302 7.78187C15.302 7.26235 14.8809 6.84128 14.3614 6.84128ZM7.96546 13.2373C7.44595 13.2373 7.02488 13.6583 7.02488 14.1778C7.02488 14.6974 7.44595 15.1184 7.96546 15.1184C8.48498 15.1184 8.90605 14.6974 8.90605 14.1778C8.90605 13.6583 8.48498 13.2373 7.96546 13.2373ZM25.4604 18.6926V15.1184C25.4604 14.0811 24.6165 13.2373 23.5792 13.2373H19.0644V15.1184C19.0644 17.1931 17.3767 18.8808 15.302 18.8808H13.4209V23.3956C13.4209 24.4329 14.2647 25.2767 15.302 25.2767H23.5792C24.6165 25.2767 25.4604 24.4329 25.4604 23.3956C25.4604 22.876 25.8814 22.455 26.4009 22.455C26.9205 22.455 27.3415 22.876 27.3415 23.3956C27.3415 25.4702 25.6539 27.1579 23.5792 27.1579H15.302C13.2274 27.1579 11.5397 25.4702 11.5397 23.3956V18.8808H7.02491C4.95023 18.8808 3.26257 17.1931 3.26257 15.1184V6.84128C3.26257 4.76661 4.95023 3.07895 7.02491 3.07895H15.302C17.3767 3.07895 19.0644 4.76661 19.0644 6.84128V11.3561H23.5792C25.6539 11.3561 27.3415 13.0437 27.3415 15.1184V18.6926C27.3415 19.2122 26.9205 19.6332 26.4009 19.6332C25.8814 19.6332 25.4604 19.2122 25.4604 18.6926ZM17.1832 6.84128C17.1832 5.80394 16.3394 4.96012 15.302 4.96012H7.02488C5.98754 4.96012 5.14371 5.80394 5.14371 6.84128V15.1184C5.14371 16.1558 5.98754 16.9996 7.02488 16.9996H15.302C16.3394 16.9996 17.1832 16.1558 17.1832 15.1184V6.84128ZM18.5941 19.257C18.5941 19.7765 19.0151 20.1976 19.5346 20.1976C20.0542 20.1976 20.4752 19.7765 20.4752 19.257C20.4752 18.7375 20.0542 18.3164 19.5346 18.3164C19.0151 18.3164 18.5941 18.7375 18.5941 19.257ZM22.6386 15.1184C22.1191 15.1184 21.698 15.5395 21.698 16.059C21.698 16.5785 22.1191 16.9996 22.6386 16.9996C23.1581 16.9996 23.5792 16.5785 23.5792 16.059C23.5792 15.5395 23.1581 15.1184 22.6386 15.1184ZM15.302 22.455C15.302 22.9745 15.7231 23.3956 16.2426 23.3956C16.7621 23.3956 17.1832 22.9745 17.1832 22.455C17.1832 21.9355 16.7621 21.5144 16.2426 21.5144C15.7231 21.5144 15.302 21.9355 15.302 22.455ZM22.6386 21.5144C22.1191 21.5144 21.698 21.9355 21.698 22.455C21.698 22.9745 22.1191 23.3956 22.6386 23.3956C23.1581 23.3956 23.5792 22.9745 23.5792 22.455C23.5792 21.9355 23.1581 21.5144 22.6386 21.5144Z" fill="#9FA3FF"/>
</svg>
