<svg width="30" height="30" viewBox="0 0 30 30" fill="none" xmlns="http://www.w3.org/2000/svg">
<path fill-rule="evenodd" clip-rule="evenodd" d="M25.0644 5.99997C23.9372 4.87666 22.3507 4.2829 20.4764 4.2829C18.4279 4.2829 16.6582 5.15488 15.358 6.8046C15.2074 6.99617 15.0712 7.18767 14.9487 7.37485C14.8314 7.19012 14.7004 7.00106 14.5548 6.81219C13.2777 5.15758 11.4874 4.2829 9.37748 4.2829C7.50315 4.2829 5.9167 4.87666 4.78944 5.99997C3.52724 7.25771 2.88745 9.0958 2.88745 11.4627C2.88745 13.7605 4.23123 16.5171 6.88173 19.6563C8.90305 22.0504 11.3723 24.2654 13.0093 25.5398C13.5739 25.9795 14.2504 26.1993 14.9269 26.1993C15.6032 26.1993 16.2802 25.9795 16.8446 25.5398C17.3891 25.1156 18.5065 24.2117 19.8684 22.9214C20.2456 22.5643 20.2615 21.9688 19.9044 21.5916C19.5473 21.2147 18.9521 21.1985 18.5749 21.5556C17.2703 22.7916 16.2067 23.6523 15.6887 24.0555C15.2402 24.405 14.6136 24.405 14.1652 24.0555C12.6031 22.8394 10.247 20.7262 8.31907 18.4428C5.99627 15.6916 4.76862 13.2782 4.76862 11.4627C4.76862 7.08333 7.2749 6.16407 9.37748 6.16407C12.9938 6.16407 13.9761 9.63739 14.0177 9.79096C14.0189 9.7956 14.0206 9.79974 14.0218 9.80444C14.028 9.82595 14.0348 9.84702 14.0425 9.86783C14.0453 9.87668 14.0485 9.88552 14.0522 9.8943C14.0601 9.91442 14.0686 9.93424 14.0777 9.95405C14.0818 9.96214 14.0858 9.97073 14.0899 9.97882C14.1002 9.99864 14.111 10.018 14.1228 10.0374C14.1267 10.0437 14.1306 10.0504 14.1345 10.057C14.148 10.078 14.1625 10.0986 14.1777 10.1187C14.1801 10.1219 14.1823 10.1251 14.1847 10.128C14.3016 10.2791 14.4645 10.3964 14.6614 10.4543C15.0849 10.5787 15.5248 10.3918 15.7375 10.0273C15.738 10.0266 15.7384 10.0256 15.7389 10.0246C15.7516 10.0026 15.7634 9.98027 15.7745 9.957C15.7778 9.94967 15.781 9.94258 15.7845 9.93549C15.7923 9.91806 15.7994 9.90044 15.8061 9.88257C15.8116 9.86783 15.8166 9.85316 15.8215 9.83849C15.8237 9.83159 15.8264 9.82526 15.8283 9.81836C15.8313 9.80883 16.1259 8.85037 16.8722 7.92302C17.8114 6.75588 19.0241 6.16407 20.4764 6.16407C22.5789 6.16407 25.0852 7.08333 25.0852 11.4627C25.0852 13.2172 23.9396 15.4888 21.6803 18.2148C21.3491 18.6148 21.4045 19.2076 21.8045 19.5392C21.9799 19.6847 22.1927 19.7555 22.4041 19.7555C22.6745 19.7555 22.9427 19.6396 23.1289 19.415C25.711 16.2996 26.9664 13.6983 26.9664 11.4627C26.9664 9.0958 26.3266 7.25771 25.0644 5.99997Z" fill="#9FA3FF"/>
</svg>
