<svg width="30" height="30" viewBox="0 0 30 30" fill="none" xmlns="http://www.w3.org/2000/svg">
<path fill-rule="evenodd" clip-rule="evenodd" d="M18.1849 21.6577C18.1849 21.6577 18.3625 21.0441 18.9609 21.0441C19.3895 21.0441 19.7368 21.293 19.7368 21.923C19.7368 22.5919 18.785 23.4774 18.3723 23.801C18.262 23.8877 18.1078 23.8877 17.9975 23.801C17.5848 23.4774 16.6329 22.5919 16.6329 21.923C16.6329 21.293 16.9802 21.0441 17.4089 21.0441C18.0271 21.0441 18.1849 21.6577 18.1849 21.6577ZM8.96641 9.12784C9.37914 8.80428 10.331 7.91882 10.331 7.24987C10.331 6.61987 9.98369 6.37099 9.55503 6.37099C8.95663 6.37099 8.77905 6.98457 8.77905 6.98457C8.77905 6.98457 8.62128 6.37099 8.00307 6.37099C7.57441 6.37099 7.22708 6.61987 7.22708 7.24987C7.22708 7.91882 8.17896 8.80428 8.59168 9.12784C8.70192 9.21456 8.85618 9.21456 8.96641 9.12784ZM24.91 18.6926V6.84128C24.91 5.80395 24.0662 4.96012 23.0289 4.96012H22.5228C22.844 5.51393 23.0289 6.15616 23.0289 6.84128V23.3956C23.0289 24.0807 22.844 24.7229 22.5228 25.2767H23.0289C24.0662 25.2767 24.91 24.4329 24.91 23.3956C24.91 22.876 25.3311 22.455 25.8506 22.455C26.3701 22.455 26.7912 22.876 26.7912 23.3956C26.7912 25.4702 25.1036 27.1579 23.0289 27.1579H7.69736C5.62269 27.1579 3.93503 25.4702 3.93503 23.3956V6.84128C3.93503 4.76661 5.62269 3.07895 7.69736 3.07895H23.0289C25.1036 3.07895 26.7912 4.76661 26.7912 6.84128V18.6926C26.7912 19.2122 26.3701 19.6332 25.8506 19.6332C25.3311 19.6332 24.91 19.2122 24.91 18.6926ZM19.2666 4.96012H7.69738C6.66004 4.96012 5.81621 5.80394 5.81621 6.84128V23.3956C5.81621 24.4329 6.66004 25.2767 7.69738 25.2767H19.2666C20.3039 25.2767 21.1477 24.4329 21.1477 23.3956V6.84128C21.1477 5.80394 20.3039 4.96012 19.2666 4.96012ZM15.3867 10.9799C16.2251 10.9799 16.9438 11.2554 17.465 11.7769C18.0365 12.3483 18.326 13.1554 18.326 14.1761C18.326 15.1517 17.7944 16.2782 16.7464 17.524C15.7928 18.6576 14.7474 19.5051 14.4495 19.7378C14.1372 19.9818 13.7624 20.104 13.3879 20.104C13.0134 20.104 12.6386 19.9818 12.3263 19.7378C12.0285 19.5051 10.983 18.6576 10.0295 17.524C8.9814 16.2782 8.44984 15.1517 8.44984 14.1761C8.44984 13.1554 8.73936 12.3483 9.31079 11.7769C9.83206 11.2554 10.5507 10.9799 11.3892 10.9799C12.2712 10.9799 12.9306 11.321 13.3999 11.762C13.8717 11.322 14.5261 10.9799 15.3867 10.9799ZM15.3867 12.861C14.6099 12.861 14.3271 13.6279 14.2891 13.7426C14.1769 14.1514 13.8109 14.4357 13.3882 14.4357C13.3828 14.4357 13.3774 14.4355 13.3722 14.4355C12.9428 14.4284 12.5791 14.1328 12.4792 13.7154C12.4316 13.5574 12.1776 12.861 11.3892 12.861C10.866 12.861 10.331 13.017 10.331 14.1761C10.331 15.1657 11.8686 16.9672 13.3879 18.1792C14.9073 16.9672 16.4448 15.166 16.4448 14.1761C16.4448 13.017 15.9099 12.861 15.3867 12.861Z" fill="#9FA3FF"/>
</svg>
