<svg width="30" height="30" viewBox="0 0 30 30" fill="none" xmlns="http://www.w3.org/2000/svg">
<path fill-rule="evenodd" clip-rule="evenodd" d="M25.0347 17.7489C23.9795 16.696 22.6963 16.3143 21.5143 16.7008C20.5579 17.0136 19.8045 17.7891 19.4305 18.804C16.8839 16.182 16.0053 11.7891 15.7026 9.0681C16.9792 10.0537 18.3546 10.573 19.8126 10.6147C19.8759 10.6165 19.9385 10.6175 20.0014 10.6175C23.1346 10.6175 25.505 8.38756 26.3898 7.41373C26.6326 7.14669 26.7015 6.76403 26.5673 6.42871C26.4331 6.09345 26.1195 5.86437 25.7596 5.8393C24.3609 5.74209 23.3581 5.07208 22.3881 4.42417C21.3978 3.7628 20.3738 3.07877 19.0336 3.07877C16.4167 3.07877 15.2902 4.41439 14.4675 5.38964C14.2843 5.6071 14.1111 5.8122 13.9471 5.96951C13.7306 6.17678 13.634 6.4645 13.6616 6.74391C13.6508 7.59522 13.4473 15.0283 9.77522 18.8044C9.40117 17.7895 8.6478 17.0138 7.69119 16.7008C6.5091 16.3141 5.22613 16.696 4.17071 17.7489C3.13513 18.7821 2.56473 20.1594 2.56473 21.6274C2.56473 23.1134 3.1471 24.5129 4.20459 25.5679C5.29408 26.655 6.72336 27.1992 8.14859 27.1992C9.55742 27.1992 10.9622 26.667 12.0302 25.6017C13.065 24.5691 13.4324 23.289 13.0385 22.0889C12.7453 21.1959 12.056 20.4656 11.1749 20.0618C11.9721 19.2275 12.6724 18.2126 13.2651 17.0275C13.7978 15.9633 14.2457 14.759 14.6027 13.4363C14.9598 14.759 15.4077 15.9633 15.9403 17.0275C16.5333 18.2126 17.2334 19.2275 18.0306 20.0618C17.1493 20.4656 16.46 21.1959 16.1667 22.0889C15.773 23.289 16.1404 24.5691 17.1752 25.6017C17.9156 26.3404 18.8466 26.849 19.8672 27.0732C20.2598 27.1594 20.6589 27.2023 21.0576 27.2023C21.6647 27.2023 22.271 27.1029 22.8517 26.9056C23.3435 26.7383 23.6071 26.2033 23.4404 25.7103C23.2734 25.2177 22.7396 24.9536 22.2476 25.1207C20.9184 25.5724 19.4835 25.2448 18.5024 24.2661C17.975 23.7399 17.7853 23.1907 17.9535 22.6778C18.1291 22.1439 18.6776 21.721 19.3189 21.6254C20.2321 21.4893 20.9411 20.7912 21.0832 19.8881C21.1905 19.2067 21.5888 18.6589 22.0979 18.4924C22.5914 18.3308 23.1632 18.541 23.7076 19.0844C24.6055 19.9802 24.9593 21.2575 24.6541 22.5009C24.5299 23.0064 24.8384 23.5169 25.3429 23.6411C25.8469 23.7657 26.3565 23.4564 26.4806 22.9511C26.9448 21.06 26.4044 19.1152 25.0347 17.7489ZM10.7029 24.2661C9.28666 25.6792 6.96669 25.6642 5.53152 24.2323C4.83135 23.5335 4.44571 22.6084 4.44571 21.6274C4.44571 20.6644 4.81938 19.7612 5.49783 19.0846C6.04232 18.541 6.61385 18.3308 7.10749 18.4924C7.61664 18.6589 8.01495 19.2067 8.12225 19.8881C8.26418 20.7912 8.9734 21.4893 9.88656 21.6254C10.5278 21.7212 11.0767 22.1439 11.2519 22.6778C11.4202 23.1907 11.2304 23.7399 10.7029 24.2661ZM15.9041 6.60613C16.6168 5.76143 17.2895 4.96342 19.0336 4.96342C19.8044 4.96342 20.484 5.41748 21.3446 5.99254C22.0129 6.43866 22.784 6.95357 23.7347 7.30767C22.7659 8.04963 21.4132 8.77502 19.8661 8.73093C18.454 8.69037 17.1075 7.99562 15.8557 6.66368C15.8719 6.64465 15.8879 6.62529 15.9041 6.60613Z" fill="#9FA3FF"/>
</svg>
