<svg width="30" height="30" viewBox="0 0 30 30" fill="none" xmlns="http://www.w3.org/2000/svg">
<path fill-rule="evenodd" clip-rule="evenodd" d="M21.7144 25.9539C21.3308 25.9539 20.947 25.8392 20.6101 25.6089L15.5653 22.1627C15.4562 22.0881 15.3096 22.0881 15.2003 22.1627L10.1557 25.6089C9.47105 26.0766 8.59235 26.0682 7.9172 25.5875C7.24135 25.1062 6.96087 24.2887 7.2026 23.5044L8.98514 17.7199C9.02314 17.5964 8.97889 17.4608 8.87472 17.382L4.09849 13.767C3.43382 13.2639 3.18015 12.433 3.45221 11.6503C3.72371 10.8698 4.43982 10.3654 5.27699 10.3654H11.2385C11.3801 10.3654 11.4986 10.2871 11.5407 10.1663L13.5541 4.36339C13.8252 3.58289 14.543 3.07895 15.3829 3.07895C16.2228 3.07895 16.9404 3.58289 17.2115 4.36302L19.2252 10.1663C19.267 10.2873 19.3857 10.3654 19.5274 10.3654H25.4916C26.3286 10.3654 27.0445 10.8696 27.3158 11.65C27.5879 12.4326 27.3342 13.2632 26.6695 13.766L21.8911 17.382C21.7869 17.4609 21.7427 17.5966 21.7807 17.7199L21.9372 18.2281C22.0875 18.7157 21.8063 19.2304 21.3089 19.3778C20.812 19.525 20.287 19.2493 20.1367 18.7618L19.9802 18.2537C19.7178 17.4022 20.0239 16.465 20.742 15.9216L25.5206 12.3056C25.5419 12.2894 25.5417 12.2854 25.5408 12.2701C25.5388 12.2407 25.5219 12.2166 25.5151 12.2126C25.5151 12.2126 25.5087 12.2101 25.4916 12.2101H19.5274C18.5824 12.2101 17.7454 11.6276 17.4445 10.7606L15.431 4.95755C15.4226 4.93361 15.4191 4.92351 15.3829 4.92351C15.3465 4.92351 15.3431 4.93361 15.3346 4.95792L13.3214 10.7605C13.0204 11.6276 12.1835 12.2101 11.2385 12.2101H5.27699C5.25973 12.2101 5.25329 12.2126 5.25329 12.2126C5.24647 12.2164 5.22958 12.2404 5.22737 12.2699C5.22629 12.2859 5.22592 12.2901 5.2476 12.3067L10.0238 15.9216C10.7419 16.4652 11.048 17.4022 10.7857 18.2535L9.00292 24.038C8.99558 24.0622 8.9921 24.0732 9.02225 24.0946C9.05126 24.1153 9.05987 24.1094 9.08066 24.0951L14.1252 20.6491C14.8775 20.1352 15.8883 20.1352 16.6404 20.6491L21.685 24.0953C21.7058 24.1094 21.7144 24.1155 21.7434 24.0946C21.7735 24.0732 21.7701 24.0622 21.7627 24.038L21.5009 23.1889C21.3506 22.7012 21.6319 22.1865 22.1292 22.039C22.6261 21.8919 23.1512 22.1675 23.3015 22.6552L23.563 23.5044C23.8048 24.2887 23.5243 25.1062 22.8484 25.5875C22.5056 25.8316 22.1101 25.9539 21.7144 25.9539Z" fill="white"/>
</svg>
