<svg width="30" height="30" viewBox="0 0 30 30" fill="none" xmlns="http://www.w3.org/2000/svg">
<path fill-rule="evenodd" clip-rule="evenodd" d="M23.1329 3.39691L25.8011 7.78759C26.0096 8.13074 25.9857 8.56213 25.7405 8.88132L20.7271 15.4102C21.7961 16.6535 22.4405 18.2536 22.4405 19.9976C22.4405 20.802 22.3042 21.5921 22.0353 22.346C21.8515 22.8613 21.2734 23.134 20.7436 22.9553C20.214 22.7764 19.9337 22.2138 20.1175 21.6985C20.3119 21.1533 20.4105 20.581 20.4105 19.9977C20.4105 17.1387 18.0199 14.8127 15.0815 14.8127C12.1431 14.8127 9.75258 17.1387 9.75258 19.9977C9.75258 22.8566 12.1431 25.1826 15.0815 25.1826C15.8391 25.1826 16.5704 25.0314 17.2553 24.7333C17.7671 24.5105 18.3674 24.7336 18.5964 25.2314C18.8254 25.7293 18.5961 26.3134 18.0844 26.5362C17.137 26.9487 16.1267 27.1578 15.0815 27.1578C11.0238 27.1578 7.72251 23.9458 7.72251 19.9977C7.72251 18.2135 8.39679 16.5798 9.51029 15.3247L4.48063 8.93643C4.23078 8.61916 4.20216 8.18659 4.40816 7.84073L7.05004 3.40442C7.16962 3.20359 7.35811 3.05021 7.58243 2.9711C7.70936 2.92631 10.7419 1.875 15.183 1.875C19.6348 1.875 22.5046 2.93318 22.6245 2.97821C22.8377 3.05816 23.0167 3.20571 23.1329 3.39691ZM6.50497 8.25961L11.0386 14.0179C11.8442 13.5006 12.7599 13.133 13.7436 12.9565L8.13867 5.51627L6.50497 8.25961ZM15.3353 8.34401C14.3485 8.34401 13.4599 8.44895 12.9253 8.52909L15.2337 11.5933L20.4941 4.4301C19.3249 4.16039 17.4814 3.85023 15.183 3.85023C12.9252 3.85023 11.0518 4.14942 9.82754 4.41702L11.6399 6.82279C11.7401 6.76003 11.8526 6.71258 11.9761 6.68685C12.0384 6.67391 13.523 6.36879 15.3353 6.36879C15.8959 6.36879 16.3503 6.81094 16.3503 7.3564C16.3503 7.90186 15.8959 8.34401 15.3353 8.34401ZM16.6884 13.0099C17.6072 13.2098 18.4618 13.5772 19.2163 14.0776L23.7094 8.22643L22.1209 5.61246L16.6884 13.0099ZM16.2996 22.2199C16.2996 22.7654 15.8451 23.2075 15.2845 23.2075C14.7239 23.2075 14.2695 22.7653 14.2695 22.2198V20.0637C13.8981 20.2213 13.4495 20.1522 13.1457 19.8566C12.7493 19.4709 12.7493 18.8456 13.1457 18.4599L14.5667 17.0772C14.8571 16.7948 15.2938 16.7103 15.6729 16.8632C16.0522 17.0161 16.2996 17.3762 16.2996 17.7756V22.2199Z" fill="#9FA3FF"/>
</svg>
